<svg width="389" height="643" viewBox="0 0 389 643" fill="none" xmlns="http://www.w3.org/2000/svg">
<path d="M11.6482 8.51656L51.5797 0L36.1062 247.926L0.667105 234.678V164.653L11.6482 8.51656ZM88.0148 0L157.665 260.701L123.456 255.497L51.5797 0H88.0148ZM86.5196 164.653H57.0702V142.889H77.0359L86.5196 164.653Z" fill="white"/>
<path d="M170.376 0H114.864L174.525 260.701H201.171L178.861 164.653L247.824 176.955L249.789 111.934H206.819L170.376 0ZM186.9 0L215.897 74.1971H249.789L272.7 8.51656L186.9 0Z" fill="white"/>
<path d="M346.074 16.0868H389L335.744 111.458H311.102L346.074 16.0868ZM288.142 260.701L249.789 255.497L290.525 16.0868H311.102L288.142 260.701ZM376.521 260.701H315.922L310.497 132.721L335.744 123.017L376.521 260.701Z" fill="white"/>
<path d="M96.5025 350.137C117.886 350.137 134.832 333.854 134.832 313.741C135.786 274.75 59.3102 263.967 37.9262 263.967C16.9458 263.967 0 280.249 0 300.171L3.04652e-05 438.603L36.1062 431.979L31.8742 334.182C38.5314 339.929 86.8192 350.137 96.5025 350.137ZM38.128 276.035C52.2495 276.035 116.961 295.833 116.961 309.05C116.961 322.459 110.624 338.069 96.5025 338.069C82.7845 338.069 12.7093 313.58 12.7093 300.171C12.7093 286.954 24.41 276.035 38.128 276.035ZM88.0148 369.951L49.6125 356.019L65.0565 424.882H116.961L88.0148 369.951Z" fill="white"/>
<path d="M142.392 276.035L170.376 271.584L181.856 643L158.895 639.215L142.392 276.035ZM186.9 276.035L237.261 553.109L221.288 544.113L170.376 271.584L186.9 276.035ZM194.334 450.431L181.856 448.539V424.882H191.839L194.334 450.431Z" fill="white"/>
<path d="M248.583 271.584H201.171L259.704 553.109L283.604 572.034L275.119 437.576L315.922 450.431L310.497 397.439H267.708L248.583 271.584ZM260.562 271.584L267.708 302.064L320.042 309.05L305.454 271.584H260.562Z" fill="white"/>
<path d="M389 322.21L334.144 313.741L320.042 276.035H385.057L389 322.21ZM385.057 585.949L334.144 582.637L335.744 334.182H369.534L385.057 585.949Z" fill="white"/>
</svg>
