<svg width="658" height="696" viewBox="0 0 658 696" fill="none" xmlns="http://www.w3.org/2000/svg">
<path d="M0.339355 0H103.388L72.4138 335.355L29.5265 285.32L42.631 207.289L0.339355 0ZM130.193 0L229.986 328.207L211.76 312.124L103.388 0H130.193ZM156.997 207.289H109.94V179.888L145.084 176.314L156.997 207.289Z" fill="white"/>
<path d="M247.762 0H178.909L250.107 328.207H281.904L255.28 207.289L337.578 222.776L339.923 140.917H288.645L247.762 0ZM264.874 0L299.478 93.4096H339.923L367.264 10.7218L264.874 0Z" fill="white"/>
<path d="M454.825 20.2523H506.052L442.499 140.319H413.092L454.825 20.2523ZM385.691 328.207L339.923 321.655L388.536 20.2523H413.092L385.691 328.207ZM491.161 328.207H418.843L412.37 167.088L442.499 154.871L491.161 328.207Z" fill="white"/>
<path d="M203.227 445.455C228.746 445.455 248.968 424.957 248.968 399.635C250.107 350.548 177.505 335.355 151.986 335.355C126.949 335.355 106.726 355.853 106.726 380.933L136.745 690.962H186.78L144.764 423.751C152.708 430.985 191.672 445.455 203.227 445.455ZM152.227 350.548C169.079 350.548 227.642 377.089 227.642 393.729C227.642 410.61 220.079 430.262 203.227 430.262C186.857 430.262 121.893 397.814 121.893 380.933C121.893 364.294 135.856 350.548 152.227 350.548ZM211.76 468.782L165.932 451.243L196.31 607.512L238.602 624.844L211.76 468.782Z" fill="white"/>
<path d="M271.959 357.99H322.652L279.559 607.512L264.874 604.377L271.959 357.99ZM394.068 368.712L409.556 659.392L361.307 651.648L327.355 357.99L394.068 368.712ZM339.986 554.216H299.541V539.024H339.986V554.216Z" fill="white"/>
<path d="M446.524 350.246L409.556 368.712L428.129 659.392L456.65 683.218L446.524 513.943L510.222 534.304L500.133 468.782L446.524 484.269V350.246ZM462.607 344.29L457.841 399.635L526.938 403.855L515.02 337.737L462.607 344.29Z" fill="white"/>
<path d="M641.866 380.933H548.939L526.938 335.355L657.949 337.737L641.866 380.933ZM570.979 695.131L510.222 690.962L566.213 403.855L599.57 393.729L570.979 695.131Z" fill="white"/>
</svg>
