<svg width="694" height="539" viewBox="0 0 694 539" fill="none" xmlns="http://www.w3.org/2000/svg">
<path d="M3.7986 8.47524L32.8904 0.393277L29.6532 291.05L0.389773 314.545L2.43334 131.059L3.7986 8.47524ZM92.6328 1.06018L152.495 238.264L115.194 242.986L32.8904 0.393277L92.6328 1.06018ZM79.5676 186.424L52.9412 197.628L53.4869 148.631L66.4861 148.776L79.5676 186.424Z" fill="white"/>
<path d="M150.748 1.70743L117.885 1.34142L196.845 292.912L203.919 228.099L177.477 133.008L224.627 140.071L233.155 81.5959L161.178 80.7943L150.748 1.70743ZM162.058 1.83339L168.951 58.4137L247.669 59.2904L260.191 2.92635L162.058 1.83339Z" fill="white"/>
<path d="M321.671 12.0145L402.964 12.9199L342.171 88.8422L288.102 94.7404L321.671 12.0145ZM242.888 265.014L221.656 259.641L270.479 11.4444L295.767 11.726L242.888 265.014ZM340.197 266.098L283.487 265.466L285.194 112.209L320.551 112.603L340.197 266.098Z" fill="white"/>
<path d="M298.554 368.447C318.565 368.67 334.602 352.779 334.823 332.931C336.144 294.463 279.344 281.919 259.333 281.697C239.699 281.478 223.662 297.369 223.443 317.029L228.756 476.55L289.635 460.417L252.897 350.924C259.064 356.664 289.492 368.347 298.554 368.447ZM259.389 293.608C272.604 293.755 318.296 315.071 318.151 328.115C318.003 341.347 311.902 356.685 298.687 356.538C285.849 356.395 235.189 330.393 235.337 317.161C235.482 304.118 246.551 293.465 259.389 293.608ZM326.502 373.296L282.138 386.552L309.699 473.716L371.292 482.191L326.502 373.296Z" fill="white"/>
<path d="M340.013 282.595L399.883 289.497L409.058 499.801L397.57 497.216L340.013 282.595ZM479.02 310.294L508.869 538.04L469.594 500.476L399.883 289.497L479.02 310.294ZM470.018 462.426L425.193 458.2L425.325 446.29L470.192 446.79L470.018 462.426Z" fill="white"/>
<path d="M512.642 310.476L493.567 310.264L522.339 530.376L546.997 509.649L537.872 476.257L571.066 476.627L583.267 400.646L523.635 413.991L512.642 310.476ZM524.786 310.612L524.269 357.028L568.116 364.054L576.753 301.576L524.786 310.612Z" fill="white"/>
<path d="M692.966 372.84L591.18 348.434L591.75 297.309L693.795 298.446L692.966 372.84ZM658.274 485.387L617.777 484.936L618.984 376.554L673.827 390.914L658.274 485.387Z" fill="white"/>
</svg>
