<svg width="304" height="837" viewBox="0 0 304 837" fill="none" xmlns="http://www.w3.org/2000/svg">
<path d="M48.3904 82.5297C52.9288 76.0479 55.9544 64.7509 55.9544 51.9723C55.9543 -11.1192 25.5495 0.91825 16.4727 0.91825C7.39591 0.91825 1.66892e-05 29.5639 1.66891e-05 49.565L5.2948 49.565C5.2948 36.2309 10.3375 24.934 16.4727 24.934C22.6079 24.934 42.5685 17.5859 42.5685 49.565C42.5685 81.5442 22.6079 74.1961 16.4727 74.1961L16.4727 106.48C22.6079 106.48 42.5684 101.387 42.5684 151.793C42.5685 183.799 22.6079 174.016 16.4727 174.016C10.3374 174.016 5.29479 162.905 5.29479 149.385L-6.35475e-10 149.385C-7.20559e-10 169.387 5.29479 192.133 16.4727 205.097C27.0203 210.19 53.7043 205.097 55.9543 151.793C55.9543 139.014 52.9288 89.0116 48.3904 82.5297Z" fill="white"/>
<path d="M65.4684 13.2667L85.2188 0.918294L76.1039 266.174L62.8879 259.322L65.4684 13.2667ZM123.251 0.918294L124.89 273.582L111.101 273.582L85.2188 0.918294L123.251 0.918294ZM100.979 192.133L79.3378 192.133L80.3884 168.058L98.8781 170.836L100.979 192.133Z" fill="white"/>
<path d="M139.716 13.2667L173.18 0.918294L158.997 273.582L139.177 273.582L139.716 13.2667ZM201.251 0.918294L200.996 273.582L182.684 273.582L173.18 0.918294L201.251 0.918294ZM176.829 193.985L163.172 192.133L164.643 170.836L176.409 174.54L176.829 193.985Z" fill="white"/>
<path d="M266.714 273.582L254.318 273.582L250.158 7.4714L263.016 7.4714L266.714 273.582ZM245.703 259.322C232.929 259.322 212.338 230.098 210.027 167.323C210.027 104.819 233.391 13.2667 246.166 13.2667L246.166 66.6629C236.416 66.6629 227.806 155.339 227.806 176.822C227.806 198.305 238.055 229.598 247.804 229.598L245.703 259.322ZM271.337 259.322L271.337 229.598C281.086 229.598 286.087 196.676 286.087 175.194C286.087 153.711 279.447 66.6629 269.698 66.6629L269.698 13.2667C282.389 13.2667 302.475 87.8137 302.475 167.323C306.888 235.654 284.027 259.322 271.337 259.322Z" fill="white"/>
<path d="M87.1174 591.926L72.2879 591.926L78.4056 412.92L87.1174 412.92L87.1174 591.926ZM93 538L93 506.5C98.7991 506.5 102.5 501.5 102.5 484.5C102.5 467.5 96.6985 424.773 90.8994 424.773L90.8994 412.92C99.7241 412.92 109.218 428.275 113 470.5C116.782 512.725 101.825 538 93 538Z" fill="white"/>
<path d="M134.201 591L123.521 591.926L127.394 346.991L138.074 346.065L134.201 591ZM175.95 591.926L160.003 591L163.876 346.065L179.822 346.991L175.95 591.926ZM137.983 591L136.289 563.284L160.003 350.324L160.003 412.92L137.983 591Z" fill="white"/>
<path d="M238.026 287.008L259.616 287.008L233.058 382.292L216.847 382.292L238.026 287.008ZM210.027 591.926L199.189 591.926L202.9 291.268L213.738 291.268L210.027 591.926ZM249.906 593.963L221.258 593.963L217.099 392.477L233.058 392.477L249.906 593.963Z" fill="white"/>
<path d="M264.911 295.157L288.481 287.008L273.443 593.963L257.599 593.963L264.911 295.157ZM300.878 290.897L303.484 593.963L294.538 593.963L288.481 287.008L300.878 290.897ZM296.345 539.098L282.225 539.098L282.225 527.431L296.345 527.431L296.345 539.098Z" fill="white"/>
<path d="M42.5011 831.272L29.0051 831.272L29.0051 614.5L42.5011 614.5L42.5011 831.272ZM86.8766 831.272L72.2879 831.272L72.2879 614.5L86.8766 614.5L86.8766 831.272ZM68.5059 739.507L46.2831 739.507L46.2831 714.413L68.5059 714.413L68.5059 739.507Z" fill="white"/>
<path d="M117.406 831.272L98.5096 831.272L98.5096 614.5L117.406 614.5L117.406 831.272ZM121.188 831.272L121.188 806.548C126.987 806.548 135.951 800.899 135.951 761.823C135.951 722.747 126.987 714.413 121.188 714.413L121.188 707.931C130.012 707.931 147.297 688.022 147.297 747.285C147.297 828.309 130.012 831.272 121.188 831.272Z" fill="white"/>
<path d="M186.168 836.827C172.511 836.827 168.614 822.382 162.731 809.418C151.133 783.676 151.71 713.95 162.731 643.298C172.511 605.61 206.969 608.111 218.735 634.409L211.427 676.448C201.762 655.335 192.891 634.409 179.822 651.632C170.241 673.115 170.241 779.417 179.822 800.714C189.572 822.012 205.204 806.27 214.869 784.973L218.735 821.456C212.852 834.42 193.816 836.827 186.168 836.827Z" fill="white"/>
<path d="M258.446 617.648C249.537 617.648 233.152 632.001 230.291 661.169C225.459 710.43 222.727 729.322 245.335 729.322C249.369 729.322 278.953 723.951 281.726 718.395L272.523 836.827L291.643 836.827L291.643 643.298C291.643 624.038 267.187 617.648 258.446 617.648ZM252.143 707.931C238.275 698.393 241.007 695.43 241.007 682.467C245.335 645.15 250.088 645.15 255.971 645.15C261.686 645.15 281.726 657.187 281.726 669.966C281.726 747.47 257.858 707.931 252.143 707.931ZM230.291 836.827L258.446 836.827L272.523 737.285L248.361 743.303L230.291 836.827Z" fill="white"/>
</svg>
