<svg width="969" height="824" viewBox="0 0 969 824" fill="none" xmlns="http://www.w3.org/2000/svg">
<path d="M154.753 89.1278C169.267 82.1277 178.943 69.9276 178.943 56.1274C178.943 -12.0081 81.7077 0.991662 52.68 0.991662C23.6523 0.991662 5.3828e-05 31.9274 5.3828e-05 53.5277H16.9329C16.9329 39.1275 33.0594 26.9274 52.68 26.9274C72.3006 26.9274 136.135 18.9919 136.135 53.5277C136.135 88.0634 72.3006 80.1279 52.68 80.1279L52.6799 114.993C72.3005 114.993 136.134 109.493 136.135 163.928C136.135 198.494 72.3005 187.929 52.6799 187.929C33.0593 187.929 16.9328 175.929 16.9328 161.328H0C0 182.929 16.9328 207.494 52.6799 221.494C86.4113 226.994 171.747 221.494 178.943 163.928C178.943 150.128 169.267 96.1278 154.753 89.1278Z" fill="white"/>
<path d="M209.369 14.3273L272.531 0.99171L238.141 274.494L209.369 226.994V14.3273ZM394.159 0.99171V282.495H350.063L272.531 0.99171H394.159ZM322.933 207.494H253.724L257.084 181.494L316.214 184.494L322.933 207.494Z" fill="white"/>
<path d="M446.816 14.3273L553.832 0.99171L503.233 282.495H439.851L446.816 14.3273ZM643.603 0.99171L637.547 282.495H578.986L553.832 0.99171H643.603ZM565.503 209.494L521.827 207.494L526.531 184.494L564.159 188.494L565.503 209.494Z" fill="white"/>
<path d="M847.717 282.495H808.072L800.009 8.06873H841.132L847.717 282.495ZM780.523 267.094C739.669 267.094 679.06 248.494 671.669 180.7C671.669 113.199 746.388 14.3273 787.242 14.3273V71.9924C756.064 71.9924 728.528 167.758 728.528 190.958C728.528 214.159 756.064 234.994 787.242 234.994L780.523 267.094ZM862.499 267.094V234.994C893.677 234.994 914.91 212.4 914.91 189.2C914.91 166 893.677 71.9924 862.499 71.9924V14.3273C903.084 14.3273 967.322 94.8342 967.322 180.7C981.432 254.494 903.084 267.094 862.499 267.094Z" fill="white"/>
<path d="M195.876 532.797H83.7236L136.135 302.795L195.876 298.595V532.797ZM207.971 452.096V439.496C226.516 439.496 255.74 430.496 255.74 361.395C255.74 318.595 226.516 311.395 207.971 311.395V298.595C236.192 298.595 298.071 301.195 310.166 346.795C327.929 468.496 236.192 452.096 207.971 452.096Z" fill="white"/>
<path d="M364.302 532.797L330.146 533.797L335.565 303.795L369.721 302.795L364.302 532.797ZM497.814 533.797L446.816 532.797L452.236 302.795L503.233 303.795L497.814 533.797ZM376.396 532.797V452.096L439.851 307.395V374.996L376.396 532.797Z" fill="white"/>
<path d="M646.717 298.595H715.761L630.828 401.496H578.986L646.717 298.595ZM563.622 533.197H528.962L534.382 303.195H569.041L563.622 533.197ZM691.155 535.397H599.541L579.792 412.496H630.828L691.155 535.397Z" fill="white"/>
<path d="M732.694 307.395L808.072 298.595L766.428 535.397H715.761L732.694 307.395ZM847.717 302.795L862.499 535.397H833.89L808.072 298.595L847.717 302.795ZM833.89 491.197H788.736V478.597H833.89V491.197Z" fill="white"/>
<path d="M90.5993 818H47.4389V549.598H90.5993V818ZM232.513 818H185.858V549.598H232.513V818ZM173.763 718.899H102.694V691.799H173.763V718.899Z" fill="white"/>
<path d="M330.146 818H269.716V549.598H330.146V818ZM342.241 818V791.3C360.786 791.3 389.455 785.2 389.455 742.999C389.455 700.799 360.786 691.799 342.241 691.799V650.498C370.462 650.498 425.74 663.298 425.74 727.299C425.74 814.8 370.462 818 342.241 818Z" fill="white"/>
<path d="M550.048 824C506.372 824 493.912 808.4 475.098 794.4C438.007 766.599 439.851 656.998 475.098 580.698C506.372 539.997 616.57 542.698 654.199 571.098L630.828 616.498C599.919 593.698 571.55 571.098 529.756 589.698C499.116 612.899 499.116 761.999 529.756 785C560.934 808 610.926 791 641.835 767.999L654.199 807.4C635.384 821.4 574.507 824 550.048 824Z" fill="white"/>
<path d="M781.195 552.997C752.705 552.997 700.306 568.497 691.155 599.998C675.701 653.197 666.966 707.899 739.266 707.899C752.167 707.899 846.776 702.099 855.646 696.099L826.215 824H887.361V580.698C887.361 559.898 809.148 552.997 781.195 552.997ZM761.037 684.799C716.689 674.499 725.424 636.998 725.424 622.998C739.266 582.698 754.467 582.698 773.282 582.698C791.558 582.698 826.215 582.698 826.215 622.998C826.215 674.999 779.314 684.799 761.037 684.799ZM691.155 824H781.195L826.215 716.499L748.942 722.999L691.155 824Z" fill="white"/>
</svg>
