<svg width="793" height="666" viewBox="0 0 793 666" fill="none" xmlns="http://www.w3.org/2000/svg">
<path d="M34.0486 57.9506C19.0381 57.9506 6.74372 45.7992 6.74372 30.6457C6.74372 15.6351 19.0381 3.34076 34.0486 3.34076V12.633C24.1846 12.633 16.036 20.7816 16.036 30.6457C16.036 40.6527 24.1846 48.8013 34.0486 48.8013V57.9506ZM49.0592 103.411H40.0528V3.34076H49.0592V103.411ZM7.88738 104.984L0.739502 99.2653L30.4747 62.0963L37.6226 67.9576L7.88738 104.984Z" fill="white"/>
<path d="M77.8093 103.411H68.803V3.34076H77.8093V103.411ZM84.2424 57.8076V48.8013C94.1065 48.8013 102.398 40.5097 102.398 30.6457C102.398 20.7816 94.1065 12.49 84.2424 12.49V3.34076C99.2529 3.34076 111.404 15.6351 111.404 30.6457C111.404 45.5133 99.2529 57.8076 84.2424 57.8076Z" fill="white"/>
<path d="M190.512 104.984L181.649 103.125L203.379 2.05414L212.099 3.91259L190.512 104.984ZM169.355 104.984L147.768 4.19851L156.488 2.34006L178.218 103.125L169.355 104.984ZM127.897 104.984L118.462 103.411L135.331 3.48371L144.623 5.05626L127.897 104.984ZM230.398 104.841L215.244 4.9133L224.679 3.62668L239.833 103.411L230.398 104.841Z" fill="white"/>
<path d="M350.04 53.3759C350.04 24.9274 326.881 1.76823 298.432 1.76823C269.983 1.76823 246.681 23.6407 246.681 52.5182C246.681 81.3956 269.983 104.984 298.432 104.984C319.447 104.984 337.602 92.4034 345.608 74.2477V103.411H354.614V53.3759H350.04ZM298.432 95.8343C274.987 95.8343 255.974 76.821 255.974 53.3759C255.974 30.2168 274.987 10.9175 298.432 10.9175C321.877 10.9175 340.89 30.2168 340.89 53.3759C340.89 76.821 321.877 95.8343 298.432 95.8343Z" fill="white"/>
<path d="M383.409 103.411H374.403V3.34076H383.409V103.411ZM389.842 57.8076V48.8013C399.706 48.8013 407.998 40.5097 407.998 30.6457C407.998 20.7816 399.706 12.49 389.842 12.49V3.34076C404.853 3.34076 417.004 15.6351 417.004 30.6457C417.004 45.5133 404.853 57.8076 389.842 57.8076Z" fill="white"/>
<path d="M481.959 0.0527344L488.107 6.34287L452.51 40.7957L446.363 34.5055L481.959 0.0527344ZM440.645 103.411H431.781V3.34076H440.645V103.411ZM494.969 99.5512L487.964 104.984L445.934 50.3738L452.939 44.9414L494.969 99.5512Z" fill="white"/>
<path d="M603.706 53.3759C603.706 24.9274 580.547 1.76823 552.098 1.76823C523.649 1.76823 500.347 23.6407 500.347 52.5182C500.347 81.3956 523.649 104.984 552.098 104.984C573.113 104.984 591.268 92.4034 599.274 74.2477V103.411H608.28V53.3759H603.706ZM552.098 95.8343C528.653 95.8343 509.64 76.821 509.64 53.3759C509.64 30.2168 528.653 10.9175 552.098 10.9175C575.543 10.9175 594.556 30.2168 594.556 53.3759C594.556 76.821 575.543 95.8343 552.098 95.8343Z" fill="white"/>
<path d="M143.411 189.781C143.411 161.333 120.252 138.174 91.8035 138.174C63.3549 138.174 40.0528 160.046 40.0528 188.924C40.0528 217.801 63.3549 241.389 91.8035 241.389C112.818 241.389 130.974 228.809 138.98 210.653V239.817H147.986V189.781H143.411ZM91.8035 232.24C68.3585 232.24 49.3451 213.226 49.3451 189.781C49.3451 166.622 68.3585 147.323 91.8035 147.323C115.249 147.323 134.262 166.622 134.262 189.781C134.262 213.226 115.249 232.24 91.8035 232.24Z" fill="white"/>
<path d="M226.53 239.817H217.524V139.746H226.53V239.817ZM211.09 228.809C189.361 228.809 171.777 211.368 171.777 189.781C171.777 168.052 189.361 150.611 211.09 150.611V159.617C194.507 159.617 180.926 173.198 180.926 189.781C180.926 206.364 194.507 219.803 211.09 219.803V228.809ZM232.963 228.809V219.803C249.546 219.803 263.127 206.364 263.127 189.781C263.127 173.198 249.546 159.617 232.963 159.617V150.611C254.55 150.611 272.133 168.052 272.133 189.781C272.133 211.368 254.55 228.809 232.963 228.809Z" fill="white"/>
<path d="M295.797 239.817H286.791V139.746H295.797V239.817ZM302.23 194.213V185.207C312.094 185.207 320.386 176.915 320.386 167.051C320.386 157.187 312.094 148.895 302.23 148.895V139.746C317.241 139.746 329.392 152.041 329.392 167.051C329.392 181.919 317.241 194.213 302.23 194.213Z" fill="white"/>
<path d="M353.176 239.817H344.17V139.746H353.176V239.817ZM406.07 239.817H397.064V139.746H406.07V239.817ZM365.041 227.665L356.464 224.234L385.627 150.754L394.062 154.042L365.041 227.665Z" fill="white"/>
<path d="M476.018 136.458L482.165 142.748L446.568 177.201L440.421 170.911L476.018 136.458ZM434.703 239.817H425.84V139.746H434.703V239.817ZM489.027 235.957L482.022 241.389L439.992 186.779L446.997 181.347L489.027 235.957Z" fill="white"/>
<path d="M597.765 189.781C597.765 161.333 574.605 138.174 546.156 138.174C517.708 138.174 494.406 160.046 494.406 188.924C494.406 217.801 517.708 241.389 546.156 241.389C567.171 241.389 585.327 228.809 593.333 210.653V239.817H602.339V189.781H597.765ZM546.156 232.24C522.711 232.24 503.698 213.226 503.698 189.781C503.698 166.622 522.711 147.323 546.156 147.323C569.601 147.323 588.615 166.622 588.615 189.781C588.615 213.226 569.601 232.24 546.156 232.24Z" fill="white"/>
<path d="M631.134 239.817H622.128V139.746H631.134V239.817ZM677.309 239.817H668.303V139.746H677.309V239.817ZM661.87 194.356H637.567V185.35H661.87V194.356Z" fill="white"/>
<path d="M756.542 241.389C743.246 241.389 729.951 236.1 719.944 226.093C700.216 206.222 700.216 173.198 719.944 153.47C740.101 133.17 772.696 133.17 792.71 153.47L786.134 159.903C769.694 143.606 743.104 143.606 726.52 159.903C710.223 176.486 710.223 202.934 726.52 219.374C743.104 235.814 769.694 235.814 786.134 219.374L792.71 226.093C782.703 236.1 769.551 241.389 756.542 241.389Z" fill="white"/>
<path d="M221.955 283.156L228.102 289.447L192.506 323.899L186.359 317.609L221.955 283.156ZM180.641 386.515H171.777V286.445H180.641V386.515ZM234.964 382.655L227.96 388.087L185.93 333.478L192.935 328.045L234.964 382.655Z" fill="white"/>
<path d="M302.001 386.515C273.553 386.515 250.25 362.927 250.25 334.049C250.25 305.172 273.553 283.299 302.001 283.299C330.45 283.299 353.609 306.459 353.609 334.907C353.609 363.356 330.45 386.515 302.001 386.515ZM302.001 292.449C278.556 292.449 259.543 311.748 259.543 334.907C259.543 358.352 278.556 377.366 302.001 377.366C325.446 377.366 344.46 358.352 344.46 334.907C344.46 311.748 325.446 292.449 302.001 292.449Z" fill="white"/>
<path d="M408.828 282.442C393.674 282.442 381.523 270.147 381.523 254.994H390.529C390.529 265.144 398.821 273.292 408.828 273.292C418.835 273.292 427.126 265.144 427.126 254.994H436.133C436.133 270.147 423.981 282.442 408.828 282.442ZM387.098 386.515H378.092V286.445H387.098V386.515ZM439.992 386.515H430.986V286.445H439.992V386.515ZM398.964 374.363L390.386 370.932L419.549 297.452L427.984 300.74L398.964 374.363Z" fill="white"/>
<path d="M169.454 416.274H114.272V407.267H169.454V416.274ZM123.278 507.338H114.272V422.707H123.278V507.338ZM169.454 507.338H160.447V422.707H169.454V507.338Z" fill="white"/>
<path d="M198.247 507.338H189.241V407.267H198.247V507.338ZM204.681 461.734V452.728C214.545 452.728 222.836 444.436 222.836 434.572C222.836 424.708 214.545 416.417 204.681 416.417V407.267C219.691 407.267 231.842 419.562 231.842 434.572C231.842 449.44 219.691 461.734 204.681 461.734Z" fill="white"/>
<path d="M293.367 508.91C264.918 508.91 241.616 485.322 241.616 456.445C241.616 427.567 264.918 405.695 293.367 405.695C321.815 405.695 344.974 428.854 344.974 457.303C344.974 485.751 321.815 508.91 293.367 508.91ZM293.367 414.844C269.922 414.844 250.908 434.144 250.908 457.303C250.908 480.748 269.922 499.761 293.367 499.761C316.812 499.761 335.825 480.748 335.825 457.303C335.825 434.144 316.812 414.844 293.367 414.844Z" fill="white"/>
<path d="M369.422 492.756L360.988 489.468L393.725 407.267L402.16 410.556L369.422 492.756ZM415.026 491.898H406.02V407.267H415.026V491.898ZM424.032 526.637H415.026V507.338H360.988V526.637H351.982V498.331H424.032V526.637Z" fill="white"/>
<path d="M473.601 447.153L438.004 405.695L430.999 411.842L466.596 453.157L473.601 447.153ZM477.889 407.267V481.177C477.889 491.327 469.598 499.475 459.591 499.475C449.584 499.475 441.292 491.327 441.292 481.177H432.286C432.286 496.33 444.437 508.624 459.591 508.624C474.744 508.624 486.896 496.33 486.896 481.177V407.267H477.889Z" fill="white"/>
<path d="M181.113 543.339L187.26 549.629L151.663 584.082L145.516 577.792L181.113 543.339ZM139.798 646.698H130.934V546.627H139.798V646.698ZM194.122 642.838L187.117 648.27L145.087 593.66L152.092 588.228L194.122 642.838Z" fill="white"/>
<path d="M259.257 620.536V546.627H250.25V620.536C250.25 630.686 241.959 638.835 231.952 638.835C221.945 638.835 213.653 630.686 213.653 620.536V546.627H204.647V620.536C204.647 635.69 216.798 647.984 231.952 647.984C246.105 647.984 257.684 637.262 259.114 623.396V665.997H268.12V620.536H259.257Z" fill="white"/>
<path d="M291.275 646.698H282.269V546.627H291.275V646.698ZM344.17 646.698H335.163V546.627H344.17V646.698ZM303.141 634.546L294.563 631.115L323.727 557.635L332.161 560.923L303.141 634.546Z" fill="white"/>
<path d="M372.945 646.698H363.939V546.627H372.945V646.698ZM425.84 646.698H416.833V546.627H425.84V646.698ZM384.811 634.546L376.233 631.115L405.397 557.635L413.831 560.923L384.811 634.546Z" fill="white"/>
</svg>
