<svg width="553" height="584" viewBox="0 0 553 584" fill="none" xmlns="http://www.w3.org/2000/svg">
<path d="M0.5 0H87L61 281.5L25 239.5L36 174L0.5 0ZM109.5 0L193.268 275.5L177.968 262L87 0H109.5ZM132 174H92.5V151L122 148L132 174Z" fill="white"/>
<path d="M208.189 0H150.393L210.157 275.5H236.848L214.5 174L283.582 187L285.55 118.287H242.506L208.189 0ZM222.553 0L251.6 78.4089H285.55L308.5 9L222.553 0Z" fill="white"/>
<path d="M382 17H425L371.653 117.785H346.968L382 17ZM323.968 275.5L285.55 270L326.356 17H346.968L323.968 275.5ZM412.5 275.5H351.796L346.362 140.255L371.653 130L412.5 275.5Z" fill="white"/>
<path d="M170.806 373.919C192.227 373.919 209.202 356.713 209.202 335.458C210.157 294.253 149.214 281.5 127.794 281.5C106.777 281.5 89.8022 298.706 89.8022 319.759L115 580H157L121.731 355.7C128.4 361.773 161.106 373.919 170.806 373.919ZM127.996 294.253C142.141 294.253 191.3 316.532 191.3 330.5C191.3 344.67 184.952 361.166 170.806 361.166C157.065 361.166 102.533 333.929 102.533 319.759C102.533 305.792 114.254 294.253 127.996 294.253ZM177.968 393.5L139.5 378.777L165 509.951L200.5 524.5L177.968 393.5Z" fill="white"/>
<path d="M228.5 300.5H271.052L234.88 509.951L222.553 507.32L228.5 300.5ZM331 309.5L344 553.5L303.5 547L275 300.5L331 309.5ZM285.602 465.215H251.653V452.462H285.602V465.215Z" fill="white"/>
<path d="M375.032 294L344 309.5L359.591 553.5L383.532 573.5L375.032 431.409L428.5 448.5L420.032 393.5L375.032 406.5V294ZM388.532 289L384.532 335.458L442.532 339L432.528 283.5L388.532 289Z" fill="white"/>
<path d="M539.004 319.759H461L442.532 281.5L552.504 283.5L539.004 319.759ZM479.5 583.5L428.5 580L475.5 339L503.5 330.5L479.5 583.5Z" fill="white"/>
</svg>
