<svg width="666" height="559" viewBox="0 0 666 559" fill="none" xmlns="http://www.w3.org/2000/svg">
<path d="M28.2525 48.6C15.6525 48.6 5.33248 38.4 5.33248 25.68C5.33248 13.08 15.6525 2.76 28.2525 2.76V10.56C19.9725 10.56 13.1325 17.4 13.1325 25.68C13.1325 34.08 19.9725 40.92 28.2525 40.92V48.6ZM40.8525 86.76H33.2925V2.76H40.8525V86.76ZM6.29248 88.08L0.29248 83.28L25.2525 52.08L31.2525 57L6.29248 88.08Z" fill="white"/>
<path d="M64.9856 86.76H57.4256V2.76H64.9856V86.76ZM70.3856 48.48V40.92C78.6656 40.92 85.6256 33.96 85.6256 25.68C85.6256 17.4 78.6656 10.44 70.3856 10.44V2.76C82.9856 2.76 93.1856 13.08 93.1856 25.68C93.1856 38.16 82.9856 48.48 70.3856 48.48Z" fill="white"/>
<path d="M159.59 88.08L152.15 86.52L170.39 1.68L177.71 3.24L159.59 88.08ZM141.83 88.08L123.71 3.48001L131.03 1.92L149.27 86.52L141.83 88.08ZM107.03 88.08L99.1097 86.76L113.27 2.88L121.07 4.2L107.03 88.08ZM193.07 87.96L180.35 4.08001L188.27 3L200.99 86.76L193.07 87.96Z" fill="white"/>
<path d="M293.498 44.76C293.498 20.88 274.058 1.44 250.178 1.44C226.298 1.44 206.738 19.8 206.738 44.04C206.738 68.28 226.298 88.08 250.178 88.08C267.818 88.08 283.058 77.52 289.778 62.28V86.76H297.338V44.76H293.498ZM250.178 80.4C230.498 80.4 214.538 64.44 214.538 44.76C214.538 25.32 230.498 9.12 250.178 9.12C269.858 9.12 285.818 25.32 285.818 44.76C285.818 64.44 269.858 80.4 250.178 80.4Z" fill="white"/>
<path d="M321.509 86.76H313.949V2.76H321.509V86.76ZM326.909 48.48V40.92C335.189 40.92 342.149 33.96 342.149 25.68C342.149 17.4 335.189 10.44 326.909 10.44V2.76C339.509 2.76 349.709 13.08 349.709 25.68C349.709 38.16 339.509 48.48 326.909 48.48Z" fill="white"/>
<path d="M404.233 0L409.393 5.28L379.513 34.2L374.353 28.92L404.233 0ZM369.553 86.76H362.113V2.76H369.553V86.76ZM415.153 83.52L409.273 88.08L373.993 42.24L379.873 37.68L415.153 83.52Z" fill="white"/>
<path d="M506.428 44.76C506.428 20.88 486.988 1.44 463.108 1.44C439.228 1.44 419.668 19.8 419.668 44.04C419.668 68.28 439.228 88.08 463.108 88.08C480.748 88.08 495.988 77.52 502.708 62.28V86.76H510.268V44.76H506.428ZM463.108 80.4C443.428 80.4 427.468 64.44 427.468 44.76C427.468 25.32 443.428 9.12 463.108 9.12C482.788 9.12 498.748 25.32 498.748 44.76C498.748 64.44 482.788 80.4 463.108 80.4Z" fill="white"/>
<path d="M120.052 159.26C120.052 135.38 100.612 115.94 76.7325 115.94C52.8525 115.94 33.2925 134.3 33.2925 158.54C33.2925 182.78 52.8525 202.58 76.7325 202.58C94.3725 202.58 109.612 192.02 116.332 176.78V201.26H123.892V159.26H120.052ZM76.7325 194.9C57.0525 194.9 41.0925 178.94 41.0925 159.26C41.0925 139.82 57.0525 123.62 76.7325 123.62C96.4125 123.62 112.372 139.82 112.372 159.26C112.372 178.94 96.4125 194.9 76.7325 194.9Z" fill="white"/>
<path d="M189.823 201.26H182.263V117.26H189.823V201.26ZM176.863 192.02C158.623 192.02 143.863 177.38 143.863 159.26C143.863 141.02 158.623 126.38 176.863 126.38V133.94C162.943 133.94 151.543 145.34 151.543 159.26C151.543 173.18 162.943 184.46 176.863 184.46V192.02ZM195.223 192.02V184.46C209.143 184.46 220.543 173.18 220.543 159.26C220.543 145.34 209.143 133.94 195.223 133.94V126.38C213.343 126.38 228.103 141.02 228.103 159.26C228.103 177.38 213.343 192.02 195.223 192.02Z" fill="white"/>
<path d="M247.967 201.26H240.407V117.26H247.967V201.26ZM253.367 162.98V155.42C261.647 155.42 268.607 148.46 268.607 140.18C268.607 131.9 261.647 124.94 253.367 124.94V117.26C265.967 117.26 276.167 127.58 276.167 140.18C276.167 152.66 265.967 162.98 253.367 162.98Z" fill="white"/>
<path d="M296.131 201.26H288.571V117.26H296.131V201.26ZM340.531 201.26H332.971V117.26H340.531V201.26ZM306.091 191.06L298.891 188.18L323.371 126.5L330.451 129.26L306.091 191.06Z" fill="white"/>
<path d="M399.246 114.5L404.406 119.78L374.526 148.7L369.366 143.42L399.246 114.5ZM364.566 201.26H357.126V117.26H364.566V201.26ZM410.166 198.02L404.286 202.58L369.006 156.74L374.886 152.18L410.166 198.02Z" fill="white"/>
<path d="M501.441 159.26C501.441 135.38 482.001 115.94 458.121 115.94C434.241 115.94 414.681 134.3 414.681 158.54C414.681 182.78 434.241 202.58 458.121 202.58C475.761 202.58 491.001 192.02 497.721 176.78V201.26H505.281V159.26H501.441ZM458.121 194.9C438.441 194.9 422.481 178.94 422.481 159.26C422.481 139.82 438.441 123.62 458.121 123.62C477.801 123.62 493.761 139.82 493.761 159.26C493.761 178.94 477.801 194.9 458.121 194.9Z" fill="white"/>
<path d="M529.452 201.26H521.892V117.26H529.452V201.26ZM568.211 201.26H560.652V117.26H568.211V201.26ZM555.252 163.1H534.852V155.54H555.252V163.1Z" fill="white"/>
<path d="M634.72 202.58C623.56 202.58 612.4 198.14 604 189.74C587.44 173.06 587.44 145.34 604 128.78C620.92 111.74 648.28 111.74 665.08 128.78L659.56 134.18C645.76 120.5 623.44 120.5 609.52 134.18C595.84 148.1 595.84 170.3 609.52 184.1C623.44 197.9 645.76 197.9 659.56 184.1L665.08 189.74C656.68 198.14 645.64 202.58 634.72 202.58Z" fill="white"/>
<path d="M185.983 237.64L191.143 242.92L161.263 271.84L156.103 266.56L185.983 237.64ZM151.303 324.4H143.863V240.4H151.303V324.4ZM196.903 321.16L191.023 325.72L155.743 279.88L161.623 275.32L196.903 321.16Z" fill="white"/>
<path d="M253.174 324.4C229.294 324.4 209.734 304.6 209.734 280.36C209.734 256.12 229.294 237.76 253.174 237.76C277.054 237.76 296.494 257.2 296.494 281.08C296.494 304.96 277.054 324.4 253.174 324.4ZM253.174 245.44C233.494 245.44 217.534 261.64 217.534 281.08C217.534 300.76 233.494 316.72 253.174 316.72C272.854 316.72 288.814 300.76 288.814 281.08C288.814 261.64 272.854 245.44 253.174 245.44Z" fill="white"/>
<path d="M342.846 237.04C330.126 237.04 319.926 226.72 319.926 214H327.486C327.486 222.52 334.446 229.36 342.846 229.36C351.246 229.36 358.206 222.52 358.206 214H365.766C365.766 226.72 355.566 237.04 342.846 237.04ZM324.606 324.4H317.046V240.4H324.606V324.4ZM369.006 324.4H361.446V240.4H369.006V324.4ZM334.566 314.2L327.366 311.32L351.846 249.64L358.926 252.4L334.566 314.2Z" fill="white"/>
<path d="M141.913 349.38H95.5928V341.82H141.913V349.38ZM103.153 425.82H95.5928V354.78H103.153V425.82ZM141.913 425.82H134.353V354.78H141.913V425.82Z" fill="white"/>
<path d="M166.083 425.82H158.523V341.82H166.083V425.82ZM171.483 387.54V379.98C179.763 379.98 186.723 373.02 186.723 364.74C186.723 356.46 179.763 349.5 171.483 349.5V341.82C184.083 341.82 194.283 352.14 194.283 364.74C194.283 377.22 184.083 387.54 171.483 387.54Z" fill="white"/>
<path d="M245.927 427.14C222.047 427.14 202.487 407.34 202.487 383.1C202.487 358.86 222.047 340.5 245.927 340.5C269.807 340.5 289.247 359.94 289.247 383.82C289.247 407.7 269.807 427.14 245.927 427.14ZM245.927 348.18C226.247 348.18 210.287 364.38 210.287 383.82C210.287 403.5 226.247 419.46 245.927 419.46C265.607 419.46 281.567 403.5 281.567 383.82C281.567 364.38 265.607 348.18 245.927 348.18Z" fill="white"/>
<path d="M309.768 413.58L302.688 410.82L330.168 341.82L337.248 344.58L309.768 413.58ZM348.048 412.86H340.488V341.82H348.048V412.86ZM355.608 442.02H348.048V425.82H302.688V442.02H295.128V418.26H355.608V442.02Z" fill="white"/>
<path d="M397.217 375.3L367.337 340.5L361.457 345.66L391.337 380.34L397.217 375.3ZM400.817 341.82V403.86C400.817 412.38 393.857 419.22 385.457 419.22C377.057 419.22 370.097 412.38 370.097 403.86H362.537C362.537 416.58 372.737 426.9 385.457 426.9C398.177 426.9 408.377 416.58 408.377 403.86V341.82H400.817Z" fill="white"/>
<path d="M151.699 456.04L156.859 461.32L126.979 490.24L121.819 484.96L151.699 456.04ZM117.019 542.8H109.579V458.8H117.019V542.8ZM162.619 539.56L156.739 544.12L121.459 498.28L127.339 493.72L162.619 539.56Z" fill="white"/>
<path d="M217.294 520.84V458.8H209.734V520.84C209.734 529.36 202.774 536.2 194.374 536.2C185.974 536.2 179.014 529.36 179.014 520.84V458.8H171.454V520.84C171.454 533.56 181.654 543.88 194.374 543.88C206.254 543.88 215.974 534.88 217.174 523.24V559H224.734V520.84H217.294Z" fill="white"/>
<path d="M244.171 542.8H236.611V458.8H244.171V542.8ZM288.571 542.8H281.011V458.8H288.571V542.8ZM254.131 532.6L246.931 529.72L271.411 468.04L278.491 470.8L254.131 532.6Z" fill="white"/>
<path d="M312.726 542.8H305.166V458.8H312.726V542.8ZM357.126 542.8H349.566V458.8H357.126V542.8ZM322.686 532.6L315.486 529.72L339.966 468.04L347.046 470.8L322.686 532.6Z" fill="white"/>
</svg>
