<svg width="694" height="538" viewBox="0 0 694 538" fill="none" xmlns="http://www.w3.org/2000/svg">
<path d="M3.68178 8.40493L32.7736 0.322965L29.5364 290.98L0.272952 314.475L2.31652 130.988L3.68178 8.40493ZM92.516 0.989867L152.378 238.194L115.077 242.915L32.7736 0.322965L92.516 0.989867ZM79.4508 186.353L52.8244 197.558L53.3701 148.561L66.3693 148.705L79.4508 186.353Z" fill="white"/>
<path d="M150.631 1.63712L117.768 1.27111L196.728 292.842L203.803 228.028L177.36 132.938L224.511 140.001L233.038 81.5256L161.061 80.724L150.631 1.63712ZM161.941 1.76308L168.835 58.3434L247.552 59.2201L260.075 2.85604L161.941 1.76308Z" fill="white"/>
<path d="M321.554 11.9442L402.847 12.8496L342.054 88.7718L287.985 94.6701L321.554 11.9442ZM242.771 264.944L221.539 259.57L270.362 11.374L295.65 11.6557L242.771 264.944ZM340.08 266.027L283.37 265.396L285.077 112.139L320.434 112.533L340.08 266.027Z" fill="white"/>
<path d="M298.437 368.377C318.449 368.6 334.485 352.709 334.707 332.86C336.028 294.392 279.227 281.849 259.216 281.626C239.582 281.408 223.545 297.299 223.326 316.958L228.639 476.48L289.518 460.347L252.781 350.853C258.947 356.594 289.376 368.276 298.437 368.377ZM259.272 293.537C272.487 293.685 318.179 315.001 318.034 328.044C317.887 341.277 311.785 356.615 298.57 356.468C285.732 356.325 235.072 330.323 235.22 317.091C235.365 304.047 246.435 293.394 259.272 293.537ZM326.385 373.226L282.021 386.482L309.582 473.645L371.175 482.121L326.385 373.226Z" fill="white"/>
<path d="M339.896 282.525L399.766 289.427L408.941 499.731L397.453 497.145L339.896 282.525ZM478.903 310.223L508.752 537.97L469.478 500.405L399.766 289.427L478.903 310.223ZM469.901 462.356L425.076 458.129L425.209 446.22L470.075 446.72L469.901 462.356Z" fill="white"/>
<path d="M512.525 310.406L493.45 310.194L522.222 530.306L546.88 509.579L537.755 476.187L570.949 476.556L583.15 400.576L523.518 413.921L512.525 310.406ZM524.669 310.541L524.153 356.957L567.999 363.983L576.636 301.505L524.669 310.541Z" fill="white"/>
<path d="M692.85 372.77L591.064 348.363L591.633 297.239L693.678 298.376L692.85 372.77ZM658.157 485.317L617.66 484.866L618.867 376.483L673.71 390.844L658.157 485.317Z" fill="white"/>
</svg>
