<svg width="479" height="411" viewBox="0 0 479 411" fill="none" xmlns="http://www.w3.org/2000/svg">
<path d="M0 0H74.991L52.4504 198.092L21.2402 168.537L30.7767 122.444L0 0ZM94.4973 0L167.12 193.87L153.856 184.37L74.991 0H94.4973ZM114.004 122.444H79.7592V106.259L105.334 104.148L114.004 122.444Z" fill="white"/>
<path d="M180.055 0H129.95L181.762 193.87H204.902L185.527 122.444L245.417 131.592L247.123 83.2391H209.807L180.055 0ZM192.508 0L217.691 55.1765H247.123L267.02 6.33332L192.508 0Z" fill="white"/>
<path d="M330.741 11.9629H368.019L321.77 82.8859H300.37L330.741 11.9629ZM280.43 193.87L247.123 190L282.5 11.9629H300.37L280.43 193.87ZM357.183 193.87H304.556L299.845 98.6978L321.77 91.4813L357.183 193.87Z" fill="white"/>
<path d="M147.647 263.128C166.217 263.128 180.934 251.019 180.934 236.062C181.762 207.066 128.928 198.092 110.357 198.092C92.1367 198.092 77.4204 210.2 77.4204 225.015L99.2656 408.147H135.677L105.101 250.307C110.883 254.581 139.237 263.128 147.647 263.128ZM110.532 207.066C122.796 207.066 165.413 222.745 165.413 232.574C165.413 242.545 159.91 254.153 147.647 254.153C135.733 254.153 88.4577 234.987 88.4577 225.015C88.4577 215.186 98.619 207.066 110.532 207.066ZM153.856 276.907L120.506 266.546L142.613 358.854L173.39 369.092L153.856 276.907Z" fill="white"/>
<path d="M197.664 211.463H234.555L203.195 358.854L192.508 357.002L197.664 211.463ZM286.526 217.796L297.797 389.499L262.685 384.925L237.977 211.463L286.526 217.796ZM247.169 327.373H217.736V318.398H247.169V327.373Z" fill="white"/>
<path d="M324.699 206.888L297.797 217.796L311.313 389.499L332.069 403.573L324.699 303.583L371.054 315.61L363.712 276.907L324.699 286.055V206.888ZM336.403 203.37L332.935 236.062L383.218 238.555L374.546 199.5L336.403 203.37Z" fill="white"/>
<path d="M466.855 225.015H399.23L383.218 198.092L478.558 199.5L466.855 225.015ZM415.268 410.61L371.054 408.147L411.8 238.555L436.075 232.574L415.268 410.61Z" fill="white"/>
</svg>
