<svg width="325" height="435" viewBox="0 0 325 435" fill="none" xmlns="http://www.w3.org/2000/svg">
<path d="M9.73182 5.76159L43.0935 0L30.1659 167.726L0.55735 158.764V111.391L9.73182 5.76159ZM73.5342 0L131.726 176.369L103.145 172.848L43.0935 0H73.5342ZM72.285 111.391H47.6808V96.6667H64.3616L72.285 111.391Z" fill="white"/>
<path d="M142.345 0H95.9663L145.812 176.369H168.073L149.434 111.391L207.051 119.713L208.693 75.7249H172.793L142.345 0ZM156.15 0L180.377 50.1956H208.693L227.834 5.76159L156.15 0Z" fill="white"/>
<path d="M289.136 10.883H325L280.506 75.4035H259.918L289.136 10.883ZM240.735 176.369L208.693 172.848L242.727 10.883H259.918L240.735 176.369ZM314.574 176.369H263.945L259.413 89.788L280.506 83.223L314.574 176.369Z" fill="white"/>
<path d="M80.6255 236.873C98.4912 236.873 112.649 225.858 112.649 212.251C113.446 185.873 49.5522 178.578 31.6864 178.578C14.1578 178.578 0 189.593 0 203.071L2.5453e-05 296.722L30.1659 292.241L26.6301 226.08C32.1921 229.967 72.5353 236.873 80.6255 236.873ZM31.855 186.742C43.6531 186.742 97.7179 200.136 97.7179 209.077C97.7179 218.149 92.4236 228.709 80.6255 228.709C69.1644 228.709 10.6183 212.142 10.6183 203.071C10.6183 194.129 20.394 186.742 31.855 186.742ZM73.5342 250.278L41.4501 240.853L54.3531 287.439H97.7179L73.5342 250.278Z" fill="white"/>
<path d="M118.965 186.742L142.345 183.731L151.936 435L132.753 432.439L118.965 186.742ZM156.15 186.742L198.226 374.187L184.881 368.102L142.345 183.731L156.15 186.742ZM162.362 304.724L151.936 303.444V287.439H160.277L162.362 304.724Z" fill="white"/>
<path d="M207.685 183.731H168.073L216.977 374.187L236.944 386.991L229.855 296.027L263.945 304.724L259.413 268.874H223.664L207.685 183.731ZM217.694 183.731L223.664 204.351L267.387 209.077L255.199 183.731H217.694Z" fill="white"/>
<path d="M325 217.98L279.169 212.251L267.387 186.742H321.705L325 217.98ZM321.705 396.404L279.169 394.163L280.506 226.08H308.736L321.705 396.404Z" fill="white"/>
</svg>
