<svg width="225" height="580" viewBox="0 0 225 580" fill="none" xmlns="http://www.w3.org/2000/svg">
<path d="M35.8762 57.2008C39.2409 52.7083 41.484 44.8784 41.484 36.0217C41.484 -7.70662 18.9421 0.636434 12.2127 0.636434C5.48326 0.636434 1.23732e-05 20.4905 1.23731e-05 34.3532L3.92552 34.3532C3.92552 25.1114 7.6641 17.2816 12.2127 17.2816C16.7613 17.2816 31.5599 12.1887 31.5599 34.3532C31.5599 56.5178 16.7613 51.4249 12.2127 51.4249L12.2127 73.8007C16.7613 73.8007 31.5598 70.2708 31.5598 105.207C31.5599 127.39 16.7613 120.61 12.2127 120.61C7.66408 120.61 3.92551 112.908 3.92551 103.538L-4.40444e-10 103.538C-4.99415e-10 117.401 3.92551 133.166 12.2127 142.151C20.0326 145.681 39.8159 142.151 41.484 105.207C41.484 96.3499 39.2409 61.6934 35.8762 57.2008Z" fill="white"/>
<path d="M48.5376 9.19504L63.1804 0.636464L56.4227 184.483L46.6245 179.734L48.5376 9.19504ZM91.3771 0.636464L92.5921 189.618L82.3694 189.618L63.1804 0.636464L91.3771 0.636464ZM74.865 133.166L58.8203 133.166L59.5992 116.48L73.3073 118.405L74.865 133.166Z" fill="white"/>
<path d="M103.585 9.19504L128.394 0.636464L117.879 189.618L103.185 189.618L103.585 9.19504ZM149.205 0.636464L149.016 189.618L135.44 189.618L128.394 0.636464L149.205 0.636464ZM131.099 134.45L120.974 133.166L122.065 118.405L130.788 120.972L131.099 134.45Z" fill="white"/>
<path d="M197.74 189.618L188.549 189.618L185.465 5.17838L194.998 5.17838L197.74 189.618ZM182.162 179.734C172.691 179.734 157.425 159.48 155.712 115.97C155.712 72.6495 173.034 9.19504 182.505 9.19504L182.505 46.2036C175.277 46.2036 168.893 107.665 168.893 122.554C168.893 137.444 176.492 159.133 183.72 159.133L182.162 179.734ZM201.167 179.734L201.167 159.133C208.395 159.133 212.102 136.315 212.102 121.426C212.102 106.536 207.179 46.2036 199.952 46.2036L199.952 9.19504C209.36 9.19504 224.252 60.8632 224.252 115.97C227.524 163.331 210.575 179.734 201.167 179.734Z" fill="white"/>
<path d="M64.5881 410.26L53.5936 410.26L58.1292 286.193L64.5881 286.193L64.5881 410.26ZM68.9493 372.885L68.9493 351.052C73.2487 351.052 75.9925 347.587 75.9925 335.804C75.9925 324.021 71.6914 294.407 67.392 294.407L67.392 286.193C73.9345 286.193 80.9732 296.835 83.7772 326.101C86.5811 355.366 75.4918 372.885 68.9493 372.885Z" fill="white"/>
<path d="M99.4956 409.618L91.5773 410.26L94.4485 240.497L102.367 239.855L99.4956 409.618ZM130.447 410.26L118.625 409.618L121.496 239.855L133.319 240.497L130.447 410.26ZM102.3 409.618L101.043 390.408L118.625 242.807L118.625 286.193L102.3 409.618Z" fill="white"/>
<path d="M176.471 198.924L192.477 198.924L172.787 264.964L160.769 264.964L176.471 198.924ZM155.712 410.26L147.677 410.26L150.428 201.876L158.463 201.876L155.712 410.26ZM185.278 411.672L164.039 411.672L160.955 272.024L172.787 272.024L185.278 411.672Z" fill="white"/>
<path d="M196.402 204.571L213.877 198.924L202.728 411.672L190.982 411.672L196.402 204.571ZM223.068 201.619L225 411.672L218.368 411.672L213.877 198.924L223.068 201.619ZM219.707 373.646L209.239 373.646L209.239 365.559L219.707 365.559L219.707 373.646Z" fill="white"/>
<path d="M31.5099 576.149L21.5041 576.149L21.5041 425.906L31.5099 425.906L31.5099 576.149ZM64.4095 576.149L53.5936 576.149L53.5936 425.906L64.4095 425.906L64.4095 576.149ZM50.7896 512.548L34.3138 512.548L34.3138 495.155L50.7896 495.155L50.7896 512.548Z" fill="white"/>
<path d="M87.0435 576.149L73.0341 576.149L73.0341 425.906L87.0435 425.906L87.0435 576.149ZM89.8474 576.149L89.8474 559.014C94.1468 559.014 100.793 555.098 100.793 528.015C100.793 500.931 94.1468 495.155 89.8474 495.155L89.8474 490.663C96.3899 490.663 109.205 476.864 109.205 517.939C109.205 574.096 96.3899 576.149 89.8474 576.149Z" fill="white"/>
<path d="M138.023 580C127.898 580 125.009 569.988 120.647 561.003C112.049 543.161 112.476 494.834 120.647 445.866C127.898 419.745 153.445 421.478 162.168 439.705L156.75 468.842C149.584 454.209 143.008 439.705 133.319 451.642C126.215 466.532 126.215 540.209 133.319 554.97C140.547 569.731 152.136 558.821 159.302 544.06L162.168 569.346C157.806 578.331 143.693 580 138.023 580Z" fill="white"/>
<path d="M191.609 428.088C185.005 428.088 172.857 438.036 170.736 458.252C167.153 492.395 165.128 505.488 181.889 505.488C184.88 505.488 206.813 501.766 208.869 497.915L202.046 580L216.222 580L216.222 445.866C216.222 432.517 198.09 428.088 191.609 428.088ZM186.936 490.663C176.655 484.052 178.68 481.998 178.68 473.013C181.889 447.15 185.413 447.15 189.775 447.15C194.012 447.15 208.869 455.492 208.869 464.349C208.869 518.067 191.173 490.663 186.936 490.663ZM170.736 580L191.609 580L202.046 511.007L184.132 515.179L170.736 580Z" fill="white"/>
</svg>
