<svg width="722" height="825" viewBox="0 0 722 825" fill="none" xmlns="http://www.w3.org/2000/svg">
<path d="M115.354 89.6352C126.154 82.6352 133.354 70.4352 133.354 56.6351C133.354 -11.4997 61 1.49995 39.4 1.49995C17.8 1.49995 0.199991 32.4354 0.199991 54.0354H12.8C12.8 39.6354 24.8 27.4354 39.4 27.4354C54 27.4354 101.5 19.5 101.5 54.0354C101.5 88.5708 54 80.6354 39.4 80.6354L39.4 115.5C54 115.5 101.5 110 101.5 164.435C101.5 199 54 188.435 39.4 188.435C24.8 188.435 12.8 176.435 12.8 161.835H0.199951C0.199951 183.435 12.8 208 39.4 222C64.5 227.5 128 222 133.354 164.435C133.354 150.635 126.154 96.6352 115.354 89.6352Z" fill="white"/>
<path d="M155.995 14.8355L202.995 1.5L177.404 275L155.995 227.5V14.8355ZM293.5 1.5V283H260.687L202.995 1.5H293.5ZM240.5 208H189L191.5 182L235.5 185L240.5 208Z" fill="white"/>
<path d="M332.683 14.8355L412.316 1.5L374.664 283H327.5L332.683 14.8355ZM479.116 1.5L474.609 283H431.033L412.316 1.5H479.116ZM421 210L388.5 208L392 185L420 189L421 210Z" fill="white"/>
<path d="M631 283H601.5L595.5 8.57694H626.1L631 283ZM581 267.6C550.6 267.6 505.5 249 500 181.206C500 113.706 555.6 14.8355 586 14.8355V72.5C562.8 72.5 542.309 168.265 542.309 191.465C542.309 214.665 562.8 235.5 586 235.5L581 267.6ZM642 267.6V235.5C665.2 235.5 681 212.906 681 189.706C681 166.506 665.2 72.5 642 72.5V14.8355C672.2 14.8355 720 95.3416 720 181.206C730.5 255 672.2 267.6 642 267.6Z" fill="white"/>
<path d="M145.954 533.3H62.5L101.5 303.3L145.954 299.1V533.3ZM154.954 452.6V440C168.754 440 190.5 431 190.5 361.9C190.5 319.1 168.754 311.9 154.954 311.9V299.1C175.954 299.1 222 301.7 231 347.3C244.217 469 175.954 452.6 154.954 452.6Z" fill="white"/>
<path d="M271.283 533.3L245.867 534.3L249.9 304.3L275.316 303.3L271.283 533.3ZM370.631 534.3L332.683 533.3L336.716 303.3L374.664 304.3L370.631 534.3ZM280.283 533.3V452.6L327.5 307.9V375.5L280.283 533.3Z" fill="white"/>
<path d="M481.433 299.1H532.809L469.609 402H431.033L481.433 299.1ZM419.6 533.7H393.81L397.842 303.7H423.633L419.6 533.7ZM514.5 535.9H446.328L431.633 413H469.609L514.5 535.9Z" fill="white"/>
<path d="M545.409 307.9L601.5 299.1L570.511 535.9H532.809L545.409 307.9ZM631 303.3L642 535.9H620.712L601.5 299.1L631 303.3ZM620.712 491.7H587.111V479.1H620.712V491.7Z" fill="white"/>
<path d="M67.6164 818.5H35.5V550.1H67.6164V818.5ZM173.217 818.5H138.5V550.1H173.217V818.5ZM129.5 719.4H76.6164V692.3H129.5V719.4Z" fill="white"/>
<path d="M245.867 818.5H200.9V550.1H245.867V818.5ZM254.867 818.5V791.8C268.667 791.8 290 785.7 290 743.5C290 701.3 268.667 692.3 254.867 692.3V651C275.867 651 317 663.8 317 727.8C317 815.3 275.867 818.5 254.867 818.5Z" fill="white"/>
<path d="M409.5 824.5C377 824.5 367.728 808.9 353.728 794.9C326.128 767.1 327.5 657.5 353.728 581.201C377 540.5 459 543.201 487 571.601L469.609 617C446.609 594.2 425.5 571.601 394.4 590.201C371.6 613.401 371.6 762.5 394.4 785.5C417.6 808.5 454.8 791.5 477.8 768.5L487 807.9C473 821.9 427.7 824.5 409.5 824.5Z" fill="white"/>
<path d="M581.5 553.5C560.3 553.5 521.309 569 514.5 600.5C503 653.699 496.5 708.4 550.3 708.4C559.9 708.4 630.3 702.6 636.9 696.6L615 824.5H660.5V581.201C660.5 560.401 602.3 553.5 581.5 553.5ZM566.5 685.3C533.5 675 540 637.5 540 623.5C550.3 583.201 561.612 583.201 575.612 583.201C589.212 583.201 615 583.201 615 623.5C615 675.5 580.1 685.3 566.5 685.3ZM514.5 824.5H581.5L615 717L557.5 723.5L514.5 824.5Z" fill="white"/>
</svg>
