<svg width="486" height="699" viewBox="0 0 486 699" fill="none" xmlns="http://www.w3.org/2000/svg">
<path d="M83.2203 89.4297C90.0504 85.0037 103.365 44.5274 103.365 35.8018C103.365 -7.27903 57.6076 0.940487 43.9475 0.940487C30.2874 0.940487 19.1569 20.5006 19.1569 34.158L27.1253 34.158C27.1253 25.0531 34.7143 17.3392 43.9475 17.3392C53.1807 17.3392 83.2203 12.3217 83.2203 34.158C83.2203 55.9944 58.9146 80.3852 49.6814 80.3852L49.6814 102.43C58.9146 102.43 91.4768 126.721 78.7406 158.696C70.6814 178.93 48.701 173.871 39.4678 173.871C30.2346 173.871 22.6456 166.284 22.6456 157.052L0.681396 158.696C0.681396 172.354 22.6456 186.242 39.4678 195.094C55.3414 198.571 95.4996 195.094 98.8857 158.696C103.365 110.544 90.0504 93.8557 83.2203 89.4297Z" fill="white"/>
<path d="M117.684 9.37236L147.407 0.940517L131.223 218.001L106.251 218.001L117.684 9.37236ZM204.644 0.940517L204.644 223.059L183.892 223.059L147.407 0.940517L204.644 0.940517ZM171.126 175.637L138.556 175.637L140.137 159.198L167.964 161.095L171.126 175.637Z" fill="white"/>
<path d="M229.423 9.37236L279.784 0.940517L255.973 223.059L226.145 223.059L229.423 9.37236ZM322.029 0.940517L319.179 223.059L291.621 223.059L279.784 0.940517L322.029 0.940517ZM285.276 176.902L264.723 175.637L266.936 161.095L284.644 163.624L285.276 176.902Z" fill="white"/>
<path d="M435.784 223.059L399.426 223.059L395.632 5.41518L432.685 5.41518L435.784 223.059ZM386.462 213.322C367.236 213.322 338.715 201.561 335.236 158.696C335.236 116.017 370.398 9.37236 389.624 9.37236L389.624 45.833C374.952 45.833 361.993 150.513 361.993 165.182C361.993 179.852 374.952 193.025 389.624 193.025L386.462 213.322ZM442.74 213.322L442.74 193.025C457.412 193.025 467.404 178.74 467.404 164.071C467.404 149.401 457.412 45.833 442.74 45.833L442.74 9.37236C461.839 9.37236 484.883 102.761 484.883 157.052C491.523 203.711 461.839 213.322 442.74 213.322Z" fill="white"/>
<path d="M153.526 457.43L120.334 459.074L119.753 228.56L152.945 228.56L153.526 457.43ZM162.689 407.687L164.865 377.43C173.592 377.43 185.169 377.401 185.169 350.339C185.169 323.277 186.82 239.77 158.636 236.653L158.636 228.56C211.883 223.059 203.444 307.93 201.604 342.751C197.262 424.93 175.97 407.687 162.689 407.687Z" fill="white"/>
<path d="M241.565 456.608L216.968 458.252L216.387 230.393L243.535 230.393L241.565 456.608ZM309.383 457.683L280.396 456.608L282.365 230.393L309.383 230.393L309.383 457.683ZM247.257 456.608L248.366 349.517L276.537 233.302L276.537 276.045L247.257 456.608Z" fill="white"/>
<path d="M403.293 228.56L435.784 228.56L395.815 293.622L371.419 293.622L403.293 228.56ZM364.77 457.683L328.019 459.074L328.019 228.56L366.739 231.468L364.77 457.683ZM424.786 459.074L381.673 459.074L371.798 300.577L395.815 300.577L424.786 459.074Z" fill="white"/>
<path d="M118.386 698.5L98.0752 698.5L99.7267 476.793L120.037 476.793L118.386 698.5ZM185.169 698.5L163.214 698.5L164.865 476.793L186.82 476.793L185.169 698.5ZM157.522 635.84L124.078 635.84L124.078 618.705L157.522 618.705L157.522 635.84Z" fill="white"/>
<path d="M225.7 698.5L197.262 698.5L198.913 476.793L227.351 476.793L225.7 698.5ZM231.391 698.5L231.391 681.618C240.119 681.618 253.61 677.76 253.61 651.078C253.61 624.395 241.897 586.793 233.169 586.793L233.043 540.591C246.323 540.591 270.685 600.685 270.685 641.151C270.685 696.476 244.672 698.5 231.391 698.5Z" fill="white"/>
<path d="M328.019 698.5C307.466 698.5 301.602 688.636 292.749 679.784C275.294 662.206 277.813 540.907 294.4 492.664C309.118 466.929 348.287 468.637 365.995 486.594L354.997 515.299C340.452 500.883 339.79 486.594 320.122 498.354C305.703 513.023 304.051 659.298 318.47 673.84C333.142 688.383 343.98 677.634 358.525 663.091L364.344 688.004C355.49 696.856 339.529 698.5 328.019 698.5Z" fill="white"/>
<path d="M418.209 468.636C404.802 468.636 380.143 478.436 375.837 498.354C368.564 531.99 362.802 618.578 396.826 618.578C402.897 618.578 421.99 615.354 426.164 611.56L412.314 692.43L441.089 692.43L442.74 486.594C442.74 473.442 431.363 468.636 418.209 468.636ZM407.071 603.972C386.202 597.46 391.964 521.748 391.964 512.896C398.478 487.415 405.631 487.415 414.485 487.415C423.086 487.415 416.367 493.507 416.367 546.429C416.367 599.351 415.672 603.972 407.071 603.972ZM374.186 691.987L401.379 692.43L412.314 624.459L401.379 628.126L374.186 691.987Z" fill="white"/>
<path d="M39.4678 476.793L66.0864 476.793L46.4889 697.519L22.6456 697.519L39.4678 476.793ZM84.7425 479.449L91.699 697.519L78.2361 697.519L66.0864 476.793L84.7425 479.449ZM78.2361 598.572L56.9869 598.572L56.9869 590.605L78.2361 590.605L78.2361 598.572Z" fill="white"/>
</svg>
