<svg width="604" height="391" viewBox="0 0 604 391" fill="none" xmlns="http://www.w3.org/2000/svg">
<path d="M96.967 40.4746C86.1181 40.3538 77.3302 31.4778 77.4521 20.5323C77.5728 9.69007 86.5574 0.908742 97.4063 1.02957L97.3315 7.74142C90.2023 7.66202 84.2474 13.4822 84.168 20.6071C84.0875 27.8352 89.9113 33.7866 97.0406 33.866L96.967 40.4746ZM107.45 73.4319L100.941 73.3594L101.746 1.0779L108.255 1.1504L107.45 73.4319ZM77.6806 74.2363L72.5605 70.0484L94.3506 43.4404L99.4695 47.7315L77.6806 74.2363Z" fill="white"/>
<path d="M128.229 73.6633L121.72 73.5908L122.525 1.30933L129.034 1.38182L128.229 73.6633ZM133.246 40.7754L133.318 34.2701C140.447 34.3495 146.507 28.4272 146.586 21.3023C146.665 14.1774 140.739 8.12159 133.61 8.04219L133.684 1.43361C144.533 1.55444 153.216 10.5325 153.095 21.3748C152.976 32.1137 144.094 40.8962 133.246 40.7754Z" fill="white"/>
<path d="M209.673 75.7064L203.282 74.2927L219.8 1.46326L226.087 2.87583L209.673 75.7064ZM194.381 75.5361L179.59 2.56452L185.908 1.29233L200.802 74.265L194.381 75.5361ZM164.417 75.2023L157.611 73.9906L170.607 1.9481L177.31 3.15875L164.417 75.2023ZM238.501 75.9242L228.353 3.62397L235.182 2.77058L245.332 74.9675L238.501 75.9242Z" fill="white"/>
<path d="M325.386 39.7139C325.615 19.1653 309.063 2.25088 288.502 2.02188C267.941 1.79289 250.923 17.404 250.691 38.2624C250.459 59.1207 267.11 76.3461 287.671 76.5751C302.86 76.7442 316.083 67.8036 322.015 54.7541L321.78 75.819L328.29 75.8915L328.692 39.7507L325.386 39.7139ZM287.745 69.9665C270.8 69.7778 257.211 55.8912 257.4 38.9567C257.586 22.2287 271.483 8.44176 288.428 8.63048C305.373 8.81921 318.96 22.9123 318.773 39.6403C318.585 56.5748 304.69 70.1552 287.745 69.9665Z" fill="white"/>
<path d="M349.101 76.1233L342.592 76.0508L343.397 3.76927L349.906 3.84177L349.101 76.1233ZM354.118 43.2353L354.19 36.73C361.319 36.8094 367.379 30.8871 367.458 23.7622C367.537 16.6373 361.611 10.5815 354.482 10.5021L354.556 3.89355C365.405 4.01438 374.088 12.9925 373.967 23.8347C373.848 34.5737 364.966 43.3562 354.118 43.2353Z" fill="white"/>
<path d="M427.525 0.988688L431.917 5.58157L405.912 30.1805L401.52 25.5876L427.525 0.988688ZM396.833 75.3126L390.427 75.2412L391.232 2.95972L397.638 3.03107L396.833 75.3126ZM436.127 72.9619L431.02 76.8293L401.083 37.046L406.189 33.1785L436.127 72.9619Z" fill="white"/>
<path d="M515.088 40.4844C515.316 19.9358 498.765 3.02137 478.203 2.79238C457.642 2.56338 440.625 18.1745 440.392 39.0329C440.16 59.8912 456.812 77.1166 477.373 77.3456C492.561 77.5147 505.785 68.574 511.717 55.5246L511.482 76.5895L517.991 76.662L518.394 40.5212L515.088 40.4844ZM477.447 70.737C460.502 70.5483 446.913 56.6617 447.101 39.7272C447.288 22.9992 461.185 9.21225 478.13 9.40097C495.075 9.58969 508.661 23.6827 508.475 40.4108C508.286 57.3453 494.391 70.9257 477.447 70.737Z" fill="white"/>
<path d="M75.0635 132.932C75.2924 112.383 58.7405 95.4688 38.1793 95.2398C17.6182 95.0108 0.600683 110.622 0.368375 131.48C0.136066 152.339 16.7878 169.564 37.349 169.793C52.5374 169.962 65.7605 161.022 71.6926 147.972L71.458 169.037L77.9674 169.11L78.3699 132.969L75.0635 132.932ZM37.4226 163.185C20.4777 162.996 6.88875 149.109 7.07736 132.175C7.26367 115.447 21.1608 101.66 38.1057 101.848C55.0506 102.037 68.6373 116.13 68.451 132.858C68.2624 149.793 54.3675 163.373 37.4226 163.185Z" fill="white"/>
<path d="M128.226 169.669L121.716 169.597L122.521 97.3152L129.031 97.3877L128.226 169.669ZM117.155 161.594C101.45 161.419 88.8821 148.68 89.0557 133.088C89.2305 117.392 102.08 104.936 117.785 105.111L117.712 111.616C105.727 111.483 95.8018 121.183 95.6684 133.161C95.535 145.139 105.242 154.955 117.228 155.089L117.155 161.594ZM132.964 161.77L133.036 155.265C145.022 155.398 154.945 145.801 155.079 133.823C155.212 121.845 145.506 111.926 133.52 111.793L133.593 105.287C149.195 105.461 161.763 118.2 161.588 133.896C161.414 149.488 148.565 161.944 132.964 161.77Z" fill="white"/>
<path d="M178.289 170.227L171.779 170.154L172.584 97.8727L179.094 97.9452L178.289 170.227ZM183.305 137.339L183.377 130.833C190.507 130.913 196.566 124.991 196.645 117.866C196.725 110.741 190.799 104.685 183.67 104.606L183.743 97.997C194.592 98.1178 203.276 107.096 203.155 117.938C203.035 128.677 194.154 137.46 183.305 137.339Z" fill="white"/>
<path d="M224.416 171.464L217.907 171.392L218.712 99.1096L225.221 99.1821L224.416 171.464ZM262.646 171.89L256.137 171.818L256.942 99.5354L263.451 99.6079L262.646 171.89ZM233.09 162.782L226.918 160.235L248.587 107.394L254.657 109.837L233.09 162.782Z" fill="white"/>
<path d="M313.706 99.4445L318.098 104.037L292.094 128.636L287.701 124.043L313.706 99.4445ZM283.014 173.769L276.608 173.698L277.413 101.416L283.819 101.487L283.014 173.769ZM322.308 171.418L317.201 175.286L287.264 135.502L292.37 131.634L322.308 171.418Z" fill="white"/>
<path d="M401.269 138.94C401.498 118.392 384.946 101.477 364.384 101.248C343.823 101.019 326.806 116.63 326.574 137.489C326.341 158.347 342.993 175.573 363.554 175.802C378.742 175.971 391.966 167.03 397.898 153.981L397.664 175.046L404.173 175.118L404.575 138.977L401.269 138.94ZM363.628 169.193C346.683 169.004 333.094 155.118 333.283 138.183C333.469 121.455 347.366 107.668 364.311 107.857C381.256 108.045 394.842 122.139 394.656 138.867C394.468 155.801 380.573 169.382 363.628 169.193Z" fill="white"/>
<path d="M424.984 175.35L418.475 175.278L419.28 102.996L425.789 103.068L424.984 175.35ZM458.357 175.722L451.848 175.649L452.653 103.367L459.162 103.44L458.357 175.722ZM447.564 142.761L429.999 142.565L430.072 136.06L447.637 136.255L447.564 142.761Z" fill="white"/>
<path d="M506.122 177.39C496.513 177.283 486.947 173.355 479.795 166.046C465.696 151.534 465.962 127.681 480.379 113.59C495.111 99.0896 518.668 99.3519 532.97 114.176L528.166 118.77C516.415 106.866 497.197 106.652 485.08 118.29C473.168 130.137 472.955 149.24 484.602 161.246C496.455 173.254 515.673 173.468 527.687 161.726L532.386 166.632C525.073 173.78 515.525 177.495 506.122 177.39Z" fill="white"/>
<path d="M52.3294 191.544L56.7217 196.137L30.7172 220.736L26.325 216.143L52.3294 191.544ZM21.6378 265.868L15.2318 265.797L16.0368 193.515L22.4428 193.587L21.6378 265.868ZM60.9314 263.517L55.8248 267.385L25.8874 227.602L30.9939 223.734L60.9314 263.517Z" fill="white"/>
<path d="M102.281 267.902C81.7201 267.673 65.0682 250.448 65.3005 229.59C65.5328 208.731 82.5504 193.12 103.112 193.349C123.673 193.578 140.225 210.493 139.996 231.041C139.767 251.59 122.842 268.131 102.281 267.902ZM103.038 199.958C86.0931 199.769 72.1959 213.556 72.0096 230.284C71.821 247.219 85.4099 261.105 102.355 261.294C119.3 261.483 133.194 247.902 133.383 230.968C133.569 214.24 119.983 200.146 103.038 199.958Z" fill="white"/>
<path d="M173.289 192.375C162.336 192.253 153.653 183.275 153.775 172.33L160.284 172.402C160.202 179.733 166.13 185.686 173.362 185.767C180.595 185.847 186.653 180.028 186.735 172.697L193.244 172.769C193.122 183.715 184.241 192.497 173.289 192.375ZM156.746 267.373L150.237 267.3L151.042 195.019L157.551 195.091L156.746 267.373ZM194.976 267.799L188.466 267.726L189.271 195.445L195.781 195.517L194.976 267.799ZM165.42 258.691L159.248 256.144L180.917 203.304L186.987 205.747L165.42 258.691Z" fill="white"/>
<path d="M305.82 203.249L265.937 202.805L266.01 196.299L305.892 196.743L305.82 203.249ZM271.714 268.653L265.205 268.581L265.885 207.451L272.395 207.524L271.714 268.653ZM305.087 269.025L298.578 268.953L299.259 207.823L305.768 207.896L305.087 269.025Z" fill="white"/>
<path d="M338.351 267.64L331.842 267.567L332.647 195.286L339.156 195.358L338.351 267.64ZM343.367 234.752L343.44 228.247C350.569 228.326 356.628 222.404 356.708 215.279C356.787 208.154 350.861 202.098 343.732 202.019L343.806 195.41C354.654 195.531 363.338 204.509 363.217 215.351C363.098 226.09 354.216 234.873 343.367 234.752Z" fill="white"/>
<path d="M417.826 269.661C397.265 269.432 380.613 252.207 380.845 231.348C381.078 210.49 398.095 194.879 418.656 195.108C439.217 195.337 455.769 212.251 455.54 232.8C455.312 253.348 438.387 269.89 417.826 269.661ZM418.583 201.716C401.638 201.528 387.741 215.315 387.554 232.043C387.366 248.977 400.955 262.864 417.899 263.052C434.844 263.241 448.739 249.661 448.928 232.726C449.114 215.998 435.527 201.905 418.583 201.716Z" fill="white"/>
<path d="M481.45 258.7L475.38 256.257L499.703 197.146L505.772 199.589L481.45 258.7ZM514.417 258.448L507.908 258.375L508.588 197.245L515.098 197.318L514.417 258.448ZM520.647 283.612L514.137 283.54L514.293 269.599L475.237 269.164L475.081 283.105L468.572 283.032L468.8 262.587L520.874 263.167L520.647 283.612Z" fill="white"/>
<path d="M564.701 226.683L539.307 196.452L534.195 200.835L559.589 230.964L564.701 226.683ZM568.121 197.908L567.527 251.294C567.445 258.625 561.387 264.444 554.154 264.364C546.921 264.283 540.994 258.33 541.076 250.999L534.567 250.927C534.445 261.872 543.128 270.85 554.08 270.972C565.033 271.094 573.914 262.312 574.036 251.366L574.631 197.981L568.121 197.908Z" fill="white"/>
<path d="M398.434 300.721L402.826 305.314L376.821 329.913L372.429 325.32L398.434 300.721ZM367.742 375.044L361.336 374.973L362.141 302.692L368.547 302.763L367.742 375.044ZM407.035 372.694L401.929 376.561L371.991 336.778L377.098 332.91L407.035 372.694Z" fill="white"/>
<path d="M462.42 357.2L463.015 303.815L456.506 303.743L455.911 357.128C455.829 364.459 449.771 370.278 442.539 370.197C435.306 370.117 429.379 364.164 429.46 356.833L430.055 303.448L423.546 303.376L422.951 356.76C422.829 367.706 431.513 376.684 442.465 376.806C452.694 376.92 461.149 369.269 462.294 359.264L461.951 390.035L468.461 390.108L468.826 357.271L462.42 357.2Z" fill="white"/>
<path d="M495.974 376.473L489.465 376.4L490.27 304.119L496.779 304.191L495.974 376.473ZM534.203 376.898L527.694 376.826L528.499 304.545L535.008 304.617L534.203 376.898ZM504.647 367.791L498.476 365.244L520.145 312.403L526.214 314.846L504.647 367.791Z" fill="white"/>
<path d="M564.471 377.235L557.961 377.163L558.766 304.882L565.276 304.954L564.471 377.235ZM602.7 377.661L596.19 377.589L596.996 305.307L603.505 305.38L602.7 377.661ZM573.144 368.554L566.972 366.007L588.641 313.166L594.711 315.609L573.144 368.554Z" fill="white"/>
</svg>
