<svg width="357" height="556" viewBox="0 0 357 556" fill="none" xmlns="http://www.w3.org/2000/svg">
<path d="M76.5989 40.5834C65.7494 40.5834 56.8631 31.8058 56.8631 20.8597C56.8631 10.0168 65.7494 1.13592 76.5989 1.13592V7.84819C69.4692 7.84819 63.5795 13.7343 63.5795 20.8597C63.5795 28.0883 69.4692 33.9744 76.5989 33.9744V40.5834ZM87.4484 73.4219H80.9387V1.13592H87.4484V73.4219ZM57.6898 74.5578L52.5233 70.4272L74.0157 43.5781L79.1821 47.812L57.6898 74.5578Z" fill="white"/>
<path d="M108.229 73.4219H101.719V1.13592H108.229V73.4219ZM112.879 40.4801V33.9744C120.008 33.9744 126.001 27.985 126.001 20.8597C126.001 13.7343 120.008 7.74493 112.879 7.74493V1.13592C123.728 1.13592 132.511 10.0168 132.511 20.8597C132.511 31.5993 123.728 40.4801 112.879 40.4801Z" fill="white"/>
<path d="M189.69 74.5578L183.284 73.2154L198.99 0.206529L205.293 1.54898L189.69 74.5578ZM174.397 74.5578L158.795 1.75552L165.098 0.413062L180.804 73.2154L174.397 74.5578ZM144.432 74.5578L137.612 73.4219L149.805 1.23918L156.521 2.37511L144.432 74.5578ZM218.519 74.4546L207.566 2.27185L214.386 1.34245L225.338 73.4219L218.519 74.4546Z" fill="white"/>
<path d="M304.995 37.2789C304.995 16.729 288.256 0 267.694 0C247.131 0 230.288 15.7996 230.288 36.6593C230.288 57.519 247.131 74.5578 267.694 74.5578C282.883 74.5578 296.006 65.4704 301.792 52.3557V73.4219H308.302V37.2789H304.995ZM267.694 67.9488C250.748 67.9488 237.005 54.2145 237.005 37.2789C237.005 20.5499 250.748 6.609 267.694 6.609C284.639 6.609 298.382 20.5499 298.382 37.2789C298.382 54.2145 284.639 67.9488 267.694 67.9488Z" fill="white"/>
<path d="M329.114 73.4219H322.605V1.13592H329.114V73.4219ZM333.764 40.4801V33.9744C340.894 33.9744 346.887 27.985 346.887 20.8597C346.887 13.7343 340.894 7.74493 333.764 7.74493V1.13592C344.614 1.13592 353.397 10.0168 353.397 20.8597C353.397 31.5993 344.614 40.4801 333.764 40.4801Z" fill="white"/>
<path d="M36.2684 91.8549L40.7116 96.3986L14.9827 121.286L10.5395 116.742L36.2684 91.8549ZM6.40639 166.516H0V94.23H6.40639V166.516ZM45.6713 163.728L40.6082 167.652L10.2296 128.204L15.2927 124.28L45.6713 163.728Z" fill="white"/>
<path d="M124.266 130.373C124.266 109.823 107.527 93.0941 86.9641 93.0941C66.4017 93.0941 49.5591 108.894 49.5591 129.753C49.5591 150.613 66.4017 167.652 86.9641 167.652C102.153 167.652 115.276 158.565 121.063 145.45V166.516H127.572V130.373H124.266ZM86.9641 161.043C70.0182 161.043 56.2755 147.309 56.2755 130.373C56.2755 113.644 70.0182 99.7031 86.9641 99.7031C103.91 99.7031 117.653 113.644 117.653 130.373C117.653 147.309 103.91 161.043 86.9641 161.043Z" fill="white"/>
<path d="M229.084 131.509C229.084 110.959 212.344 94.2298 191.782 94.2298C171.22 94.2298 154.377 110.029 154.377 130.889C154.377 151.749 171.22 168.788 191.782 168.788C206.971 168.788 220.094 159.7 225.88 146.586V167.652H232.39V131.509H229.084ZM191.782 162.179C174.836 162.179 161.093 148.444 161.093 131.509C161.093 114.78 174.836 100.839 191.782 100.839C208.728 100.839 222.471 114.78 222.471 131.509C222.471 148.444 208.728 162.179 191.782 162.179Z" fill="white"/>
<path d="M282.652 167.652H276.142V95.3657H282.652V167.652ZM271.492 159.7C255.786 159.7 243.077 147.102 243.077 131.509C243.077 115.812 255.786 103.214 271.492 103.214V109.72C259.506 109.72 249.69 119.53 249.69 131.509C249.69 143.488 259.506 153.195 271.492 153.195V159.7ZM287.301 159.7V153.195C299.288 153.195 309.104 143.488 309.104 131.509C309.104 119.53 299.288 109.72 287.301 109.72V103.214C302.904 103.214 315.613 115.812 315.613 131.509C315.613 147.102 302.904 159.7 287.301 159.7Z" fill="white"/>
<path d="M332.718 167.652H326.208V95.3657H332.718V167.652ZM337.367 134.71V128.204C344.497 128.204 350.49 122.215 350.49 115.089C350.49 107.964 344.497 101.975 337.367 101.975V95.3657C348.217 95.3657 357 104.247 357 115.089C357 125.829 348.217 134.71 337.367 134.71Z" fill="white"/>
<path d="M38.9905 256.788H32.4808V184.501H38.9905V256.788ZM77.2221 256.788H70.7125V184.501H77.2221V256.788ZM47.5667 248.01L41.367 245.532L62.4461 192.453L68.5425 194.828L47.5667 248.01Z" fill="white"/>
<path d="M127.472 183.778L131.915 188.322L106.186 213.209L101.743 208.665L127.472 183.778ZM97.6102 258.44H91.2038V186.153H97.6102V258.44ZM136.875 255.651L131.812 259.576L101.433 220.128L106.496 216.204L136.875 255.651Z" fill="white"/>
<path d="M215.47 222.296C215.47 201.747 198.73 185.017 178.168 185.017C157.605 185.017 140.763 200.817 140.763 221.677C140.763 242.537 157.605 259.576 178.168 259.576C193.357 259.576 206.48 250.488 212.267 237.373V258.44H218.776V222.296H215.47ZM178.168 252.967C161.222 252.967 147.479 239.232 147.479 222.296C147.479 205.567 161.222 191.626 178.168 191.626C195.114 191.626 208.857 205.567 208.857 222.296C208.857 239.232 195.114 252.967 178.168 252.967Z" fill="white"/>
<path d="M239.589 258.44H233.079V186.153H239.589V258.44ZM272.964 258.44H266.454V186.153H272.964V258.44ZM261.805 225.601H244.239V219.095H261.805V225.601Z" fill="white"/>
<path d="M320.745 259.576C311.135 259.576 301.526 255.755 294.293 248.526C280.033 234.172 280.033 210.317 294.293 196.067C308.862 181.403 332.421 181.403 346.887 196.067L342.134 200.714C330.251 188.941 311.032 188.941 299.046 200.714C287.266 212.693 287.266 231.797 299.046 243.673C311.032 255.548 330.251 255.548 342.134 243.673L346.887 248.526C339.654 255.755 330.148 259.576 320.745 259.576Z" fill="white"/>
<path d="M200.614 288.955L205.058 293.499L179.329 318.386L174.886 313.842L200.614 288.955ZM170.752 363.616H164.346V291.33H170.752V363.616ZM210.017 360.828L204.954 364.752L174.576 325.304L179.639 321.38L210.017 360.828Z" fill="white"/>
<path d="M251.414 364.752C230.851 364.752 214.008 347.713 214.008 326.853C214.008 305.994 230.851 290.194 251.414 290.194C271.976 290.194 288.715 306.923 288.715 327.473C288.715 348.023 271.976 364.752 251.414 364.752ZM251.414 296.803C234.468 296.803 220.725 310.744 220.725 327.473C220.725 344.409 234.468 358.143 251.414 358.143C268.359 358.143 282.102 344.409 282.102 327.473C282.102 310.744 268.359 296.803 251.414 296.803Z" fill="white"/>
<path d="M321.575 288.439C310.623 288.439 301.84 279.558 301.84 268.612H308.349C308.349 275.943 314.342 281.83 321.575 281.83C328.808 281.83 334.802 275.943 334.802 268.612H341.311C341.311 279.558 332.528 288.439 321.575 288.439ZM305.869 363.616H299.36V291.33H305.869V363.616ZM344.101 363.616H337.591V291.33H344.101V363.616ZM314.446 354.838L308.246 352.36L329.325 299.281L335.422 301.657L314.446 354.838Z" fill="white"/>
<path d="M121.166 387.677H81.281V381.171H121.166V387.677ZM87.7907 453.457H81.281V392.324H87.7907V453.457ZM121.166 453.457H114.656V392.324H121.166V453.457Z" fill="white"/>
<path d="M141.978 453.457H135.468V381.171H141.978V453.457ZM146.628 420.515V414.01C153.757 414.01 159.75 408.02 159.75 400.895C159.75 393.77 153.757 387.78 146.628 387.78V381.171C157.477 381.171 166.26 390.052 166.26 400.895C166.26 411.634 157.477 420.515 146.628 420.515Z" fill="white"/>
<path d="M210.729 454.593C190.167 454.593 173.324 437.554 173.324 416.694C173.324 395.835 190.167 380.035 210.729 380.035C231.292 380.035 248.031 396.764 248.031 417.314C248.031 437.864 231.292 454.593 210.729 454.593ZM210.729 386.644C193.784 386.644 180.041 400.585 180.041 417.314C180.041 434.25 193.784 447.984 210.729 447.984C227.675 447.984 241.418 434.25 241.418 417.314C241.418 400.585 227.675 386.644 210.729 386.644Z" fill="white"/>
<path d="M265.702 442.924L259.606 440.549L283.268 381.171L289.364 383.546L265.702 442.924ZM298.664 442.304H292.154V381.171H298.664V442.304ZM305.174 467.398H298.664V453.457H259.606V467.398H253.096V446.951H305.174V467.398Z" fill="white"/>
<path d="M341.001 409.982L315.272 380.035L310.209 384.476L335.938 414.319L341.001 409.982ZM344.101 381.171V434.559C344.101 441.891 338.108 447.777 330.875 447.777C323.642 447.777 317.649 441.891 317.649 434.559H311.139C311.139 445.506 319.922 454.387 330.875 454.387C341.828 454.387 350.611 445.506 350.611 434.559V381.171H344.101Z" fill="white"/>
<path d="M157.434 467.398L161.878 471.942L136.149 496.829L131.705 492.285L157.434 467.398ZM127.572 542.059H121.166V469.773H127.572V542.059ZM166.837 539.271L161.774 543.195L131.395 503.747L136.459 499.823L166.837 539.271Z" fill="white"/>
<path d="M213.917 523.161V469.773H207.407V523.161C207.407 530.493 201.414 536.379 194.181 536.379C186.948 536.379 180.955 530.493 180.955 523.161V469.773H174.445V523.161C174.445 534.108 183.228 542.989 194.181 542.989C204.41 542.989 212.78 535.244 213.813 525.227V556H220.323V523.161H213.917Z" fill="white"/>
<path d="M237.059 542.059H230.55V469.773H237.059V542.059ZM275.291 542.059H268.781V469.773H275.291V542.059ZM245.636 533.282L239.436 530.803L260.515 477.725L266.611 480.1L245.636 533.282Z" fill="white"/>
<path d="M296.09 542.059H289.58V469.773H296.09V542.059ZM334.321 542.059H327.812V469.773H334.321V542.059ZM304.666 533.282L298.466 530.803L319.546 477.725L325.642 480.1L304.666 533.282Z" fill="white"/>
</svg>
