<svg width="481" height="362" viewBox="0 0 481 362" fill="none" xmlns="http://www.w3.org/2000/svg">
<path d="M20.4072 32.017C11.306 32.017 3.85171 25.4259 3.85171 17.2064C3.85171 9.06444 11.306 2.39578 20.4072 2.39578V7.43605C14.4264 7.43605 9.48577 11.856 9.48577 17.2064C9.48577 22.6344 14.4264 27.0543 20.4072 27.0543V32.017ZM29.5084 56.6756H24.0476V2.39578H29.5084V56.6756ZM4.54514 57.5285L0.211243 54.4268L18.2402 34.2658L22.5741 37.445L4.54514 57.5285Z" fill="white"/>
<path d="M46.9401 56.6756H41.4794V2.39578H46.9401V56.6756ZM50.8406 31.9395V27.0543C56.8214 27.0543 61.8487 22.5568 61.8487 17.2064C61.8487 11.856 56.8214 7.35851 50.8406 7.35851V2.39578C59.9418 2.39578 67.3094 9.06444 67.3094 17.2064C67.3094 25.2708 59.9418 31.9395 50.8406 31.9395Z" fill="white"/>
<path d="M115.274 57.5285L109.9 56.5205L123.075 1.6979L128.362 2.70595L115.274 57.5285ZM102.446 57.5285L89.3574 2.86104L94.6447 1.85299L107.82 56.5205L102.446 57.5285ZM77.3092 57.5285L71.5884 56.6756L81.8164 2.47332L87.4505 3.3263L77.3092 57.5285ZM139.457 57.451L130.269 3.24876L135.99 2.55087L145.178 56.6756L139.457 57.451Z" fill="white"/>
<path d="M211.998 29.5357C211.998 14.1047 197.957 1.54282 180.708 1.54282C163.459 1.54282 149.33 13.4068 149.33 29.0704C149.33 44.734 163.459 57.5285 180.708 57.5285C193.449 57.5285 204.457 50.7048 209.311 40.8569V56.6756H214.772V29.5357H211.998ZM180.708 52.5658C166.493 52.5658 154.964 42.2527 154.964 29.5357C154.964 16.9738 166.493 6.50554 180.708 6.50554C194.923 6.50554 206.451 16.9738 206.451 29.5357C206.451 42.2527 194.923 52.5658 180.708 52.5658Z" fill="white"/>
<path d="M232.231 56.6756H226.77V2.39578H232.231V56.6756ZM236.131 31.9395V27.0543C242.112 27.0543 247.139 22.5568 247.139 17.2064C247.139 11.856 242.112 7.35851 236.131 7.35851V2.39578C245.233 2.39578 252.6 9.06444 252.6 17.2064C252.6 25.2708 245.233 31.9395 236.131 31.9395Z" fill="white"/>
<path d="M291.984 0.612305L295.711 4.02418L274.128 22.7119L270.401 19.3001L291.984 0.612305ZM266.934 56.6756H261.56V2.39578H266.934V56.6756ZM299.871 54.5819L295.624 57.5285L270.141 27.9073L274.388 24.9607L299.871 54.5819Z" fill="white"/>
<path d="M365.801 29.5357C365.801 14.1047 351.759 1.54282 334.51 1.54282C317.261 1.54282 303.133 13.4068 303.133 29.0704C303.133 44.734 317.261 57.5285 334.51 57.5285C347.252 57.5285 358.26 50.7048 363.114 40.8569V56.6756H368.574V29.5357H365.801ZM334.51 52.5658C320.295 52.5658 308.767 42.2527 308.767 29.5357C308.767 16.9738 320.295 6.50554 334.51 6.50554C348.725 6.50554 360.253 16.9738 360.253 29.5357C360.253 42.2527 348.725 52.5658 334.51 52.5658Z" fill="white"/>
<path d="M86.7157 103.524C86.7157 88.0933 72.6739 75.5313 55.425 75.5313C38.1761 75.5313 24.0476 87.3954 24.0476 103.059C24.0476 118.723 38.1761 131.517 55.425 131.517C68.1667 131.517 79.1748 124.693 84.0287 114.846V130.664H89.4894V103.524H86.7157ZM55.425 126.554C41.2099 126.554 29.6817 116.241 29.6817 103.524C29.6817 90.9623 41.2099 80.4941 55.425 80.4941C69.6402 80.4941 81.1683 90.9623 81.1683 103.524C81.1683 116.241 69.6402 126.554 55.425 126.554Z" fill="white"/>
<path d="M137.112 130.664H131.651V76.3843H137.112V130.664ZM127.751 124.693C114.576 124.693 103.915 115.233 103.915 103.524C103.915 91.7378 114.576 82.2775 127.751 82.2775V87.1627C117.696 87.1627 109.462 94.5293 109.462 103.524C109.462 112.519 117.696 119.808 127.751 119.808V124.693ZM141.013 124.693V119.808C151.067 119.808 159.302 112.519 159.302 103.524C159.302 94.5293 151.067 87.1627 141.013 87.1627V82.2775C154.101 82.2775 164.762 91.7378 164.762 103.524C164.762 115.233 154.101 124.693 141.013 124.693Z" fill="white"/>
<path d="M179.11 130.664H173.65V76.3843H179.11V130.664ZM183.011 105.928V101.043C188.992 101.043 194.019 96.5454 194.019 91.1949C194.019 85.8445 188.992 81.347 183.011 81.347V76.3843C192.112 76.3843 199.48 83.053 199.48 91.1949C199.48 99.2594 192.112 105.928 183.011 105.928Z" fill="white"/>
<path d="M213.9 130.664H208.439V76.3843H213.9V130.664ZM245.971 130.664H240.51V76.3843H245.971V130.664ZM221.094 124.073L215.893 122.212L233.576 82.3551L238.69 84.1386L221.094 124.073Z" fill="white"/>
<path d="M288.381 74.6008L292.108 78.0127L270.526 96.7005L266.798 93.2886L288.381 74.6008ZM263.331 130.664H257.957V76.3843H263.331V130.664ZM296.269 128.571L292.022 131.517L266.538 101.896L270.786 98.9492L296.269 128.571Z" fill="white"/>
<path d="M362.198 103.524C362.198 88.0933 348.156 75.5313 330.908 75.5313C313.659 75.5313 299.53 87.3954 299.53 103.059C299.53 118.723 313.659 131.517 330.908 131.517C343.649 131.517 354.658 124.693 359.512 114.846V130.664H364.972V103.524H362.198ZM330.908 126.554C316.692 126.554 305.164 116.241 305.164 103.524C305.164 90.9623 316.692 80.4941 330.908 80.4941C345.123 80.4941 356.651 90.9623 356.651 103.524C356.651 116.241 345.123 126.554 330.908 126.554Z" fill="white"/>
<path d="M382.431 130.664H376.97V76.3843H382.431V130.664ZM410.428 130.664H404.967V76.3843H410.428V130.664ZM401.067 106.006H386.331V101.12H401.067V106.006Z" fill="white"/>
<path d="M458.468 131.517C450.407 131.517 442.346 128.648 436.278 123.22C424.317 112.442 424.317 94.5293 436.278 83.8284C448.5 72.8173 468.263 72.8173 480.397 83.8284L476.41 87.3178C466.442 78.478 450.32 78.478 440.266 87.3178C430.384 96.3127 430.384 110.658 440.266 119.576C450.32 128.493 466.442 128.493 476.41 119.576L480.397 123.22C474.33 128.648 466.356 131.517 458.468 131.517Z" fill="white"/>
<path d="M134.338 154.172L138.066 157.584L116.483 176.272L112.756 172.86L134.338 154.172ZM109.289 210.236H103.915V155.956H109.289V210.236ZM142.226 208.142L137.979 211.089L112.496 181.467L116.743 178.521L142.226 208.142Z" fill="white"/>
<path d="M182.872 210.236C165.623 210.236 151.494 197.441 151.494 181.778C151.494 166.114 165.623 154.25 182.872 154.25C200.121 154.25 214.162 166.812 214.162 182.243C214.162 197.674 200.121 210.236 182.872 210.236ZM182.872 159.213C168.657 159.213 157.128 169.681 157.128 182.243C157.128 194.96 168.657 205.273 182.872 205.273C197.087 205.273 208.615 194.96 208.615 182.243C208.615 169.681 197.087 159.213 182.872 159.213Z" fill="white"/>
<path d="M247.643 153.785C238.455 153.785 231.087 147.116 231.087 138.897H236.548C236.548 144.402 241.575 148.822 247.643 148.822C253.71 148.822 258.737 144.402 258.737 138.897H264.198C264.198 147.116 256.83 153.785 247.643 153.785ZM234.468 210.236H229.007V155.956H234.468V210.236ZM266.538 210.236H261.078V155.956H266.538V210.236ZM241.662 203.645L236.461 201.784L254.143 161.927L259.257 163.71L241.662 203.645Z" fill="white"/>
<path d="M102.506 226.377H69.0482V221.492H102.506V226.377ZM74.5089 275.772H69.0482V229.867H74.5089V275.772ZM102.506 275.772H97.0451V229.867H102.506V275.772Z" fill="white"/>
<path d="M119.964 275.772H114.503V221.492H119.964V275.772ZM123.864 251.036V246.151C129.845 246.151 134.873 241.653 134.873 236.303C134.873 230.952 129.845 226.455 123.864 226.455V221.492C132.966 221.492 140.333 228.161 140.333 236.303C140.333 244.367 132.966 251.036 123.864 251.036Z" fill="white"/>
<path d="M177.637 276.625C160.388 276.625 146.259 263.831 146.259 248.167C146.259 232.503 160.388 220.639 177.637 220.639C194.885 220.639 208.927 233.201 208.927 248.632C208.927 264.063 194.885 276.625 177.637 276.625ZM177.637 225.602C163.421 225.602 151.893 236.07 151.893 248.632C151.893 261.349 163.421 271.662 177.637 271.662C191.852 271.662 203.38 261.349 203.38 248.632C203.38 236.07 191.852 225.602 177.637 225.602Z" fill="white"/>
<path d="M223.75 267.863L218.636 266.079L238.486 221.492L243.6 223.276L223.75 267.863ZM251.401 267.397H245.94V221.492H251.401V267.397ZM256.861 286.24H251.401V275.772H218.636V286.24H213.176V270.887H256.861V286.24Z" fill="white"/>
<path d="M286.916 243.127L265.333 220.639L261.086 223.974L282.668 246.383L286.916 243.127ZM289.516 221.492V261.582C289.516 267.087 284.489 271.507 278.421 271.507C272.354 271.507 267.326 267.087 267.326 261.582H261.866C261.866 269.801 269.233 276.47 278.421 276.47C287.609 276.47 294.977 269.801 294.977 261.582V221.492H289.516Z" fill="white"/>
<path d="M109.575 295.3L113.302 298.712L91.7191 317.399L87.992 313.988L109.575 295.3ZM84.5249 351.363H79.1508V297.083H84.5249V351.363ZM117.462 349.269L113.215 352.216L87.7319 322.595L91.9792 319.648L117.462 349.269Z" fill="white"/>
<path d="M156.955 337.173V297.083H151.494V337.173C151.494 342.678 146.467 347.098 140.4 347.098C134.332 347.098 129.305 342.678 129.305 337.173V297.083H123.844V337.173C123.844 345.392 131.212 352.061 140.4 352.061C148.981 352.061 156.002 346.245 156.868 338.724V361.831H162.329V337.173H156.955Z" fill="white"/>
<path d="M176.368 351.363H170.908V297.083H176.368V351.363ZM208.439 351.363H202.979V297.083H208.439V351.363ZM183.563 344.772L178.362 342.911L196.044 303.054L201.158 304.838L183.563 344.772Z" fill="white"/>
<path d="M225.887 351.363H220.426V297.083H225.887V351.363ZM257.957 351.363H252.497V297.083H257.957V351.363ZM233.081 344.772L227.88 342.911L245.562 303.054L250.676 304.838L233.081 344.772Z" fill="white"/>
</svg>
