<svg width="469" height="750" viewBox="0 0 469 750" fill="none" xmlns="http://www.w3.org/2000/svg">
<path d="M0 0H47.6474L23.3566 262.888L0 286.236V162.496V0ZM68.6683 0L121.202 286.236L89.9395 262.888L47.6474 0H68.6683ZM66.6688 162.496H40.1733L43.9104 138.215H60.0431L66.6688 162.496Z" fill="white"/>
<path d="M128.244 0H79.6626L135.498 257.285H160.434L139.555 162.496L189.439 169.033L205.934 110.467L128.244 113V0ZM139.555 8.40496L147.078 56.5L205.934 73.2249L227.376 8.40496H139.555Z" fill="white"/>
<path d="M286.753 31.7521L356.052 8.40496L287.992 118.603L254.025 125.874L286.753 31.7521ZM217.934 273.161L196.643 268.025L243.626 8.40496H268.916L217.934 273.161ZM315.248 273.161H258.535L253.458 146.858L287.992 138.215L315.248 273.161Z" fill="white"/>
<path d="M95.917 365.073C115.93 365.073 131.789 349.004 131.789 329.155C132.681 290.674 75.7445 278.764 55.732 278.764C36.097 278.764 20.238 294.833 20.238 314.494L5.9731 473.946L66.6688 457.136L50.068 348.059C56.2984 353.73 86.8547 365.073 95.917 365.073ZM55.9208 290.674C69.1366 290.674 115.063 311.481 115.063 324.525C115.063 337.758 109.133 353.163 95.917 353.163C83.0788 353.163 32.1323 327.727 32.1323 314.494C32.1323 301.45 43.0826 290.674 55.9208 290.674ZM102.608 383.36L66.6688 369.61L86.3197 457.136L122.639 418.762L102.608 383.36Z" fill="white"/>
<path d="M152.903 290.674L220.318 299.585L186.523 495.188L175.007 492.731L152.903 290.674ZM254.37 304.913L315.067 738.5L233.912 750L224.006 299.585L254.37 304.913ZM233.912 453.409H202.194V441.5H233.912V453.409Z" fill="white"/>
<path d="M287.992 304.721H268.916L317.298 622.434L356.052 628.037L315.067 470.211H348.263L359.617 394.099L300.137 408.107L287.992 304.721ZM300.137 304.721V351.141L344.059 357.678L352 295.107L300.137 304.721Z" fill="white"/>
<path d="M469 365.073L366.948 341.802V290.674H469V365.073ZM374.172 537.917L356.052 532.314L371.153 369.61L403.602 365.073L374.172 537.917Z" fill="white"/>
</svg>
