<svg width="474" height="953" viewBox="0 0 474 953" fill="none" xmlns="http://www.w3.org/2000/svg">
<path d="M67.8229 146C75.0124 138.32 89.0283 77.1288 89.0283 61.9888C89.0283 -12.7618 40.8621 1.50005 26.4831 1.50005C12.104 1.50005 0.387756 35.4393 0.387756 59.1366H8.77554C8.77554 43.3384 16.7639 29.9538 26.4831 29.9538C36.2023 29.9538 67.8229 21.2479 67.8229 59.1366C67.8229 97.0254 36.2023 124.75 26.4831 124.75L26.4831 163C36.2023 163 59.435 134.4 59.4351 194.121C59.4352 232.042 46.598 216.683 36.8789 216.683C27.1597 216.683 19.1713 203.518 19.1713 187.5H0.387762C0.387762 211.197 15.7654 247.95 33.4729 263.31C50.182 269.344 77.0761 257.275 80.6405 194.121C80.6405 178.981 75.0124 153.68 67.8229 146Z" fill="white"/>
<path d="M104.1 16.1302L135.388 1.49994L100.388 296.956H80.6405L104.1 16.1302ZM195.637 1.49994L187.249 288.982H165.406L135.388 1.49994H195.637ZM151.967 241.916H117.684L119.348 213.391L148.638 216.683L151.967 241.916Z" fill="white"/>
<path d="M221.721 16.1302L274.732 1.49994L241.28 288.982H209.883L221.721 16.1302ZM319.2 1.49994L307.813 288.982H278.804L274.732 1.49994H319.2ZM272.125 244.11L250.49 241.916L252.82 216.683L271.46 221.071L272.125 244.11Z" fill="white"/>
<path d="M212.293 513.903H168.14L187.249 301.564L209.252 296.956L212.293 513.903ZM220.217 464.956V436.956C229.404 436.956 239.84 418.487 241.195 374.354C242.892 319.068 224.43 310.999 215.243 310.999V296.956C229.223 296.956 259.875 299.809 268.155 358.337C268.155 451.249 234.197 464.956 220.217 464.956Z" fill="white"/>
<path d="M295.723 513.903L278.804 515L278.448 302.661L295.367 301.564L295.723 513.903ZM361.86 515L336.598 513.903L336.241 301.564L393.342 302.661L361.86 515ZM301.715 513.903L303.648 446.555L330.106 306.611V384.956L301.715 513.903Z" fill="white"/>
<path d="M133.939 525H168.14L126.068 637.891H100.388L133.939 525ZM90.559 720H73.3904L78.2931 530.047H95.4617L90.559 720ZM153.734 722.414H108.352L100.787 649.96H126.068L153.734 722.414Z" fill="white"/>
<path d="M176.528 534.654L213.867 525L191.02 722.414H165.922L176.528 534.654ZM233.505 529.608L238.61 722.414H224.438L213.867 525L233.505 529.608ZM225.615 642.116H203.247V628.293H225.615V642.116Z" fill="white"/>
<path d="M282.019 722.414H253.472L254.648 525H283.196L282.019 722.414ZM353 722.414H329.207L330.383 525H353V722.414ZM324.392 649.346H289.187V628.293H324.869L324.392 649.346Z" fill="white"/>
<path d="M94.7504 951.616H45.5V739.109H94.4344L94.7504 951.616ZM100.742 951.616V922.324C109.928 922.324 124.13 943.059 124.13 896.761C124.13 850.464 109.928 857.814 100.742 857.814V812.504C114.721 812.504 140.254 826.571 142.104 896.761C143.723 958.199 114.721 951.616 100.742 951.616Z" fill="white"/>
<path d="M227.213 952.713C205.577 952.713 184.513 945.472 175.194 930.113C156.82 899.614 157.417 861.325 174.877 777.617C190.369 732.964 259.849 726.053 278.488 757.211L266.911 807.018C251.6 782.005 237.548 757.211 216.845 777.617C201.667 803.07 201.983 884.693 217.161 909.926C232.605 935.16 257.369 916.509 272.68 891.276L278.804 934.501C269.484 949.861 239.328 952.713 227.213 952.713Z" fill="white"/>
<path d="M339.127 739.109C325.014 739.109 299.058 756.114 294.525 790.672C286.87 849.036 282.543 884.474 318.357 884.474C324.748 884.474 371.613 878.111 376.007 871.528L361.428 952.713H391.717V769.499C391.717 746.679 352.974 739.109 339.127 739.109ZM329.142 859.131C307.174 847.831 311.501 831.265 311.501 815.905C318.357 771.693 325.887 771.693 335.207 771.693C344.261 771.693 376.007 785.955 376.007 801.095C376.007 892.921 338.195 859.131 329.142 859.131ZM294.525 952.713H339.127L361.428 893.909L323.15 901.04L294.525 952.713Z" fill="white"/>
<path d="M413.13 271.634H393.396L389.383 9.72803H409.852L413.13 271.634ZM383.028 246.134C362.692 246.134 329.179 237.563 325.5 169.627C325.5 101.985 362.692 15.9997 383.028 15.9997V73.7855C367.509 73.7855 353.802 156.658 353.802 179.907C353.802 203.156 367.509 224.034 383.028 224.034L383.028 246.134ZM420.488 246.134V224.034C436.007 224.034 446.576 201.393 446.576 178.144C446.576 154.896 436.007 73.7855 420.488 73.7855V15.9997C440.69 15.9997 472.665 83.5813 472.665 169.627C479.688 243.575 440.69 246.134 420.488 246.134Z" fill="white"/>
</svg>
