<svg width="486" height="699" viewBox="0 0 486 699" fill="none" xmlns="http://www.w3.org/2000/svg">
<path d="M83.3375 89.5C90.1676 85.074 103.483 44.5977 103.483 35.8721C103.483 -7.20871 57.7248 1.0108 44.0647 1.0108C30.4046 1.0108 19.2741 20.5709 19.2741 34.2283L27.2425 34.2283C27.2425 25.1234 34.8315 17.4095 44.0647 17.4095C53.2979 17.4095 83.3375 12.392 83.3375 34.2283C83.3375 56.0647 59.0318 80.4555 49.7986 80.4555L49.7986 102.5C59.0318 102.5 91.594 126.791 78.8578 158.766C70.7986 179 48.8182 173.942 39.585 173.942C30.3518 173.942 22.7628 166.354 22.7628 157.123L0.798584 158.766C0.798584 172.424 22.7628 186.312 39.585 195.164C55.4586 198.642 95.6168 195.164 99.0029 158.766C103.483 110.614 90.1676 93.926 83.3375 89.5Z" fill="white"/>
<path d="M117.801 9.44267L147.524 1.01083L131.34 218.071L106.368 218.071L117.801 9.44267ZM204.761 1.01083L204.761 223.129L184.01 223.129L147.524 1.01083L204.761 1.01083ZM171.243 175.708L138.674 175.708L140.255 159.268L168.081 161.165L171.243 175.708Z" fill="white"/>
<path d="M229.541 9.44267L279.901 1.01083L256.09 223.129L226.263 223.129L229.541 9.44267ZM322.146 1.01083L319.296 223.129L291.738 223.129L279.901 1.01083L322.146 1.01083ZM285.393 176.972L264.84 175.708L267.053 161.165L284.761 163.694L285.393 176.972Z" fill="white"/>
<path d="M435.901 223.129L399.543 223.129L395.749 5.4855L432.802 5.4855L435.901 223.129ZM386.579 213.392C367.354 213.392 338.832 201.632 335.354 158.766C335.354 116.087 370.516 9.44267 389.741 9.44267L389.741 45.9033C375.069 45.9033 362.111 150.584 362.111 165.253C362.111 179.922 375.069 193.096 389.741 193.096L386.579 213.392ZM442.857 213.392L442.857 193.096C457.529 193.096 467.521 178.81 467.521 164.141C467.521 149.472 457.529 45.9033 442.857 45.9033L442.857 9.44267C461.956 9.44267 485 102.831 485 157.123C491.64 203.782 461.956 213.392 442.857 213.392Z" fill="white"/>
<path d="M153.643 457.5L120.451 459.144L119.87 228.63L153.062 228.63L153.643 457.5ZM162.807 407.757L164.982 377.5C173.71 377.5 185.286 377.471 185.286 350.409C185.286 323.347 186.938 239.84 158.753 236.723L158.753 228.63C212 223.129 203.561 308 201.721 342.821C197.379 425 176.087 407.757 162.807 407.757Z" fill="white"/>
<path d="M241.683 456.678L217.085 458.322L216.504 230.464L243.652 230.464L241.683 456.678ZM309.5 457.753L280.513 456.678L282.482 230.464L309.5 230.464L309.5 457.753ZM247.374 456.678L248.483 349.587L276.654 233.372L276.654 276.115L247.374 456.678Z" fill="white"/>
<path d="M403.41 228.63L435.901 228.63L395.932 293.693L371.536 293.693L403.41 228.63ZM364.887 457.753L328.137 459.144L328.137 228.63L366.856 231.539L364.887 457.753ZM424.903 459.144L381.79 459.144L371.916 300.648L395.932 300.648L424.903 459.144Z" fill="white"/>
<path d="M118.503 698.57L98.1924 698.57L99.8439 476.863L120.155 476.863L118.503 698.57ZM185.286 698.57L163.331 698.57L164.982 476.863L186.938 476.863L185.286 698.57ZM157.639 635.91L124.195 635.91L124.195 618.775L157.639 618.775L157.639 635.91Z" fill="white"/>
<path d="M225.817 698.57L197.379 698.57L199.031 476.863L227.468 476.863L225.817 698.57ZM231.508 698.57L231.508 681.688C240.236 681.688 253.727 677.831 253.727 651.148C253.727 624.466 242.014 586.864 233.287 586.864L233.16 540.661C246.441 540.661 270.802 600.755 270.802 641.221C270.802 696.547 244.789 698.57 231.508 698.57Z" fill="white"/>
<path d="M328.137 698.57C307.583 698.57 301.72 688.706 292.866 679.854C275.411 662.277 277.93 540.977 294.517 492.734C309.235 466.999 348.405 468.707 366.112 486.664L355.114 515.369C340.569 500.953 339.907 486.664 320.239 498.424C305.82 513.094 304.168 659.368 318.587 673.911C333.259 688.453 344.097 677.704 358.643 663.162L364.461 688.074C355.607 696.926 339.647 698.57 328.137 698.57Z" fill="white"/>
<path d="M418.326 468.706C404.919 468.706 380.261 478.507 375.954 498.424C368.682 532.061 362.919 618.649 396.943 618.649C403.014 618.649 422.107 615.424 426.281 611.63L412.431 692.5L441.206 692.5L442.857 486.664C442.857 473.512 431.48 468.706 418.326 468.706ZM407.188 604.043C386.319 597.53 392.081 521.818 392.081 512.966C398.595 487.486 405.748 487.486 414.602 487.486C423.203 487.486 416.484 493.578 416.484 546.5C416.484 599.422 415.789 604.043 407.188 604.043ZM374.303 692.057L401.497 692.5L412.431 624.529L401.497 628.196L374.303 692.057Z" fill="white"/>
<path d="M39.585 476.863L66.2036 476.863L46.6061 697.589L22.7628 697.589L39.585 476.863ZM84.8597 479.519L91.8162 697.589L78.3532 697.589L66.2036 476.863L84.8597 479.519ZM78.3532 598.642L57.1041 598.642L57.1041 590.675L78.3532 590.675L78.3532 598.642Z" fill="white"/>
</svg>
